<?xml version="1.0" encoding="utf-8"?>
<!-- Generator: Adobe Illustrator 22.1.0, SVG Export Plug-In . SVG Version: 6.00 Build 0)  -->
<svg version="1.1" id="Layer_1" xmlns="http://www.w3.org/2000/svg" xmlns:xlink="http://www.w3.org/1999/xlink" x="0px" y="0px"
	 viewBox="0 0 46.8 46.8" style="enable-background:new 0 0 46.8 46.8;" xml:space="preserve">
<style type="text/css">
	.st0{fill:#42C0EF;}
</style>
<path class="st0" d="M42.1,39.4c0,0.6-0.1,1.1-0.2,1.7c-0.2,0.9-0.7,1.7-1.4,2.3c-1.3,0.9-2.8,1.3-4.3,1.7c-2,0.4-4,0.6-6,0.7
	c-3.7,0.3-7.4,0.2-11.2,0.1c-3.2-0.1-6.4-0.3-9.5-1c-1.2-0.3-2.4-0.7-3.4-1.4c-0.9-0.6-1.3-1.4-1.6-2.3c-0.1-0.2,0-0.4-0.1-0.5
	c-0.6-2.5,0.5-4.2,2.6-5.5c1.9-1.1,4-1.9,6.1-2.4c1.2-0.3,2.5-0.5,3.7-0.7c2.2,2,4.2,3.9,6.4,5.9c2.1-2,4.2-3.9,6.4-5.9
	c1,0.2,2,0.3,3.1,0.5c1.8,0.4,3.6,0.9,5.2,1.7c0.9,0.4,1.8,1,2.6,1.6C41.6,36.8,42.2,37.9,42.1,39.4 M23.3,28.8
	c-5.3,0-9.1-3.5-10.3-7.6c1,0.9,2.7,1.7,5.4,2c0.2,0.5,0.6,0.8,1.2,0.8c0.7,0,1.2-0.6,1.2-1.2c0-0.7-0.6-1.2-1.2-1.2
	c-0.5,0-0.8,0.2-1.1,0.6c-2.6-0.3-4-1.1-4.8-1.8c-0.6-0.5-0.9-1-1.1-1.3c0-0.3,0-0.5,0-0.8c0.1-5.9,4.6-10.7,10.6-10.7
	c6.7,0,10.8,5.5,10.7,10.6C34.1,23.3,29.9,28.7,23.3,28.8 M23.2,0.9c2.9,0.1,5.6,0.9,8,2.6c3.3,2.3,5.3,5.5,6.1,9.4
	c0.2,0.9,0.2,1.7,0.3,2.6c0,0.3,0.1,0.5,0.4,0.6c0.7,0.4,1.1,1.1,1.4,1.8c0.6,1.7,0.5,3.3-0.2,4.9c-0.2,0.5-0.6,0.9-1,1.2
	c-0.7,0.6-1.7,0.5-2.4-0.2c-0.5-0.5-0.8-1.1-1-1.8c-0.5-1.6-0.4-3.2,0.4-4.8c0.3-0.5,0.6-0.9,1.1-1.3c0.1,0,0.1-0.2,0.1-0.3
	c0-1.4-0.3-2.8-0.7-4.2C35,9.7,34,8,32.6,6.5C31.9,5.7,31,5,30.1,4.4c-1.8-1.2-3.7-1.9-5.8-2c-2.6-0.2-5,0.3-7.2,1.5
	c-1.2,0.7-2.3,1.5-3.3,2.6c-2,2.1-3.2,4.7-3.6,7.5c-0.1,0.6-0.1,1.3-0.2,1.9c0,0.3,0.2,0.3,0.3,0.4c0.5,0.3,0.8,0.8,1.1,1.3
	c0.4,0.9,0.6,1.8,0.6,2.8c0,1.1-0.2,2.1-0.9,3.1c-0.4,0.6-0.9,1-1.6,1.1c-0.4,0-0.8-0.1-1.2-0.3c-1.1-0.8-1.4-2-1.6-3.3
	c-0.1-1.1,0-2.1,0.4-3.1C7.5,17,8,16.4,8.7,16c0.1,0,0.1-0.2,0.1-0.2c0.1-2,0.5-3.9,1.2-5.8c0.5-1.3,1.2-2.5,2.1-3.6
	C12.6,6,13,5.5,13.5,5c2-2,4.4-3.3,7.2-3.8C21.5,1.1,22.4,1,23.2,0.9"/>
</svg>
