<?xml version="1.0" encoding="utf-8"?>
<!-- Generator: Adobe Illustrator 22.1.0, SVG Export Plug-In . SVG Version: 6.00 Build 0)  -->
<svg version="1.1" id="Layer_1" xmlns="http://www.w3.org/2000/svg" xmlns:xlink="http://www.w3.org/1999/xlink" x="0px" y="0px"
	 viewBox="0 0 46.8 46.8" style="enable-background:new 0 0 46.8 46.8;" xml:space="preserve">
<style type="text/css">
	.st0{fill:#42C0EF;}
</style>
<path class="st0" d="M26.6,38.3c1-3.6,2.1-7.1,3.1-10.7c2.7,0.3,5.2,1.2,7.4,2.7c2.7,1.8,4.6,4.1,5.5,7.2c0.2,0.8,0.4,1.7,0.4,2.6
	c0.1,1.3,0,2.6,0,3.8c0,0.3,0,0.5,0,0.8H10.1c-0.1,0-0.1-0.1-0.1-0.1c0-2.2-0.3-4.5,0.3-6.7c0.9-3.5,3.1-6.1,6.2-7.9
	c1.9-1.2,4-1.9,6.2-2.3c0.5-0.1,0.7,0,0.8,0.5c0.9,3.2,1.8,6.4,2.8,9.6c0.1,0.2,0.1,0.4,0.2,0.6C26.5,38.4,26.5,38.4,26.6,38.3
	 M35.6,9.4c0,0.4,0,0.9,0,1.3c0,0.7,0.1,1.3,0.5,1.9c1.1,1.9,0.3,4.2-1.1,4.9c-0.3,0.2-0.4,0.5-0.6,0.8c-0.7,1.7-1.4,3.5-2.1,5.2
	c-0.2,0.5-0.6,1-0.9,1.5c-1.7,2.6-4.2,3-7.1,2.2c-0.8-0.2-1.4-0.7-2-1.3c-1.3-1.4-2.1-3.1-2.8-4.8c-0.3-0.9-0.6-1.9-1-2.8
	c-0.1-0.3-0.3-0.6-0.6-0.8c-1.7-1-2-3.6-1.1-5c0.3-0.5,0.4-1.1,0.4-1.7c0-1.1,0-2.2,0-3.4c0-0.5,0.1-0.8,0.6-1
	c3.2-1.3,6.5-1.9,9.9-1.6c2.4,0.2,4.7,0.7,6.9,1.5c0.8,0.3,0.8,0.3,0.8,1.1C35.6,8.3,35.6,8.8,35.6,9.4 M23.5,20.3
	c-0.1-1.3,0.6-2,1.6-2.3c1.1-0.3,2.2-0.3,3.2,0.1c0.5,0.2,0.9,0.6,1.1,1.1c0.1,0.3,0.1,0.7,0.4,0.9c0.3,0.2,0.7,0.1,1,0.1
	c0.2,0,0.4,0,0.6,0c0.5,0.1,0.8-0.2,0.9-0.7c0.2-0.8,0.5-1.6,0.8-2.4c0.1-0.5,0.3-0.8,0.8-0.9c0.3-0.1,0.7-0.4,0.8-0.8
	c0.7-1.3-0.1-2.6-1.6-2.9c-3.8-0.6-7.6-0.7-11.5-0.3c-0.8,0.1-1.5,0.2-2.3,0.4s-1.2,0.9-1.2,1.8c0,0.9,0.4,1.5,1.1,1.7
	c0.4,0.1,0.6,0.3,0.7,0.7c0.3,0.9,0.6,1.9,0.9,2.8c0.1,0.3,0.2,0.5,0.6,0.5C22,20.3,22.7,20.3,23.5,20.3 M21.8,22
	c0.9,2.8,2.7,4.2,5.4,4c1.7-0.1,3.7-2.1,4-4h-1.6c0,1.1-0.6,1.8-1.5,2.1c-1,0.3-2.1,0.3-3.1,0c-0.7-0.2-1.3-0.6-1.4-1.4
	c-0.1-0.6-0.3-0.7-0.8-0.7C22.5,22,22.2,22,21.8,22 M4.9,32.5c0-3.3,0-6.7,0-10c0-0.6,0.2-1.2,0.7-1.6c0.4-0.4,0.6-1,0.3-1.5
	c-0.9-1.6-1.1-3.3-1-5c0.1-1.6,0.4-3.1,0.6-4.7c0.1-0.4,0.2-0.7,0.4-1c0.6-1.1,1.3-1.2,2-0.2c0.3,0.3,0.5,0.7,0.7,1.1
	c0.7,1.6,1.2,3.3,1.4,5.1c0.2,1.4-0.3,2.6-1.5,3.4c-0.8,0.6-1,1.3-0.9,2.2c0,0.2,0.1,0.4,0.3,0.5c0.7,0.5,0.8,1.2,0.8,2.1
	c0,4.5,0,9,0,13.4c0,1.9,0,3.7,0,5.6c0,0.3,0,0.6,0,1c-0.1,1-1,1.7-2,1.7c-0.9,0-1.8-0.8-1.9-1.8s0-2.1,0-3.1
	C4.9,37.3,4.9,34.9,4.9,32.5L4.9,32.5z"/>
</svg>
