<?xml version="1.0" encoding="utf-8"?>
<!-- Generator: Adobe Illustrator 22.1.0, SVG Export Plug-In . SVG Version: 6.00 Build 0)  -->
<svg version="1.1" id="Layer_1" xmlns="http://www.w3.org/2000/svg" xmlns:xlink="http://www.w3.org/1999/xlink" x="0px" y="0px"
	 viewBox="0 0 46.8 46.8" style="enable-background:new 0 0 46.8 46.8;" xml:space="preserve">
<style type="text/css">
	.st0{fill:#25C4F4;}
</style>
<path class="st0" d="M46,21.7h-4.6C40.6,13.3,33.8,6.6,25.3,6V1H22v5C13.8,6.9,7.4,13.5,6.7,21.7H1.3V25h5.4
	c0.8,8.1,7.2,14.7,15.4,15.7v5h3.3v-5c8.5-0.6,15.3-7.3,16.1-15.7H46V21.7z M25.3,37.4v-4.1H22v4c-6.3-0.9-11.3-6-12-12.3h3.7v-3.3
	H10c0.7-6.4,5.7-11.5,12-12.4v4h3.3V9.3c6.7,0.6,12,5.8,12.8,12.5h-4.4V25h4.4C37.3,31.6,32,36.8,25.3,37.4z"/>
</svg>
