<?xml version="1.0" encoding="utf-8"?>
<!-- Generator: Adobe Illustrator 22.1.0, SVG Export Plug-In . SVG Version: 6.00 Build 0)  -->
<svg version="1.1" id="Layer_1" xmlns="http://www.w3.org/2000/svg" xmlns:xlink="http://www.w3.org/1999/xlink" x="0px" y="0px"
	 viewBox="0 0 46.6 46.8" style="enable-background:new 0 0 46.6 46.8;" xml:space="preserve">
<style type="text/css">
	.st0{fill:#42C0EF;}
</style>
<path class="st0" d="M37.6,31.6v-6.9c-0.1-0.1-0.2-0.1-0.3-0.2c-0.5-0.3-0.7-0.9-0.5-1.4c0.1-0.5,0.6-0.9,1.1-0.9c1.1,0,2.3,0,3.4,0
	c0.5,0,0.9,0.4,1.1,0.9c0.2,0.5,0,1-0.4,1.4c-0.1,0.1-0.2,0.2-0.3,0.3v6.9c1.9,0.7,3.3,2,3.9,4c0.5,1.3,0.5,2.7,0.1,4
	C44.9,42,42.4,44.3,39,44c-2.8-0.3-5.1-2.4-5.6-5.1C32.8,36,34.2,32.8,37.6,31.6 M38.3,32.1c-1.4,0.3-2.5,1.1-3.4,2.2
	c-0.8,1.2-1.2,2.5-1,3.9c0.4,3,2.6,4.8,5,5c2.7,0.3,5.2-1.3,6-3.9c0.4-1.2,0.4-2.4,0-3.6c-0.7-1.9-2.1-3.1-4-3.7v-7.7
	c0.1,0,0.1-0.1,0.2-0.1c0.5-0.3,0.6-0.6,0.5-1.1c-0.1-0.4-0.4-0.6-0.9-0.6c-0.4,0-0.8,0-1.2,0c-0.5,0-0.9,0-1.4,0
	c-0.5,0.1-0.8,0.4-0.7,0.9c0,0.4,0.3,0.7,0.9,0.8C38.3,24.2,38.3,32.1,38.3,32.1z M39.5,35.3c1.6,0,3,0.4,4.2,1.1
	c0.9,0.5,1.1,0.9,1,2c-0.2,1.2-0.6,2.2-1.4,3c-0.7,0.7-1.5,1.2-2.5,1.4c-1.3,0.3-2.5,0.2-3.6-0.4c-1.7-0.9-2.6-2.3-2.8-4.2
	c0-0.5,0.1-0.9,0.6-1.2c1.1-0.8,2.4-1.3,3.8-1.5C39,35.3,39.4,35.3,39.5,35.3 M39,41.4c0.6,0,0.9-0.4,0.9-0.9s-0.4-0.9-0.9-0.9
	s-1,0.4-1,0.9C38.1,41,38.4,41.4,39,41.4 M41.9,39c0-0.4-0.3-0.8-0.7-0.8c-0.5,0-0.8,0.3-0.9,0.7c0,0.5,0.3,0.8,0.8,0.9
	C41.5,39.8,41.9,39.4,41.9,39 M39.9,26.7c0.3,0,0.5,0.3,0.5,0.6c0,0.3-0.3,0.6-0.5,0.6c-0.3,0-0.6-0.3-0.6-0.6
	C39.3,27,39.6,26.7,39.9,26.7 M32,39.2c0.2,1.1,0.7,2.2,1.4,3.1c-2,0.4-4,0.5-6,0.7c-3.9,0.3-7.8,0.2-11.6,0.1
	C12.5,43,9.2,42.8,6,42c-1.3-0.3-2.5-0.7-3.6-1.5c-0.9-0.6-1.3-1.5-1.6-2.4c-0.1-0.2,0-0.4-0.1-0.5c-0.6-2.6,0.5-4.4,2.7-5.7
	c2-1.2,4.1-1.9,6.4-2.4c1.3-0.3,2.6-0.5,3.9-0.7c2.3,2.1,4.4,4.1,6.6,6.2c2.2-2.1,4.4-4.1,6.6-6.2c1,0.2,2.1,0.3,3.2,0.6
	c1.9,0.4,3.7,1,5.4,1.8h0.1C32.9,32.8,31.4,36,32,39.2 M31.4,14.1c0.2,5.4-4.2,11.1-11.1,11.1S9.1,19.5,9.1,14.1
	C9.2,8,14,3.1,20.2,3.1C27.2,3.1,31.5,8.8,31.4,14.1"/>
</svg>
