<?xml version="1.0" encoding="utf-8"?>
<!-- Generator: Adobe Illustrator 22.1.0, SVG Export Plug-In . SVG Version: 6.00 Build 0)  -->
<svg version="1.1" id="Layer_1" xmlns="http://www.w3.org/2000/svg" xmlns:xlink="http://www.w3.org/1999/xlink" x="0px" y="0px"
	 viewBox="0 0 46.8 46.8" style="enable-background:new 0 0 46.8 46.8;" xml:space="preserve">
<style type="text/css">
	.st0{fill:#42C0EF;}
</style>
<path class="st0" d="M15.7,31.2c-2.5-6.5-5-12.9-7.5-19.3c-2.1-0.4-4.1-0.8-6.3-1.2C2,17.6,2.1,24.2,2.3,31c5.9,2,11.8,4,17.9,6
	c0.3-1.5,0.5-2.7,0.7-4.1C19.1,32.4,17.5,31.8,15.7,31.2 M6.6,27c-1.7,0-3-1.5-3-3.3c0-0.2,0-0.4,0.1-0.6c0.3-1.5,1.5-2.7,2.9-2.7
	c0.5,0,0.9,0.1,1.3,0.3c1,0.5,1.7,1.7,1.7,3C9.6,25.5,8.2,27,6.6,27 M19.2,29.8c3.5,1.3,6.8,2.6,10.2,3.9c3-1.3,6-2.5,9.1-3.8
	c-0.6-0.5-0.9-0.9-1.3-1.2c0-0.1,0.1-0.2,0.1-0.3c1.7,0,3.2,0.7,4.9,1.4c-4.3,1.8-8.5,3.5-12.8,5.3c-4.4-1.4-8.8-2.8-13.3-4.2
	c-2.4-6.2-4.8-12.4-7.3-18.9c1.1-0.2,2.1-0.5,3.2-0.7C14.4,17.5,16.8,23.6,19.2,29.8 M24.6,25.3v2.2c-1.6,0.5-3.1,1-4.8,1.5V14.6
	c3.5-0.8,7-1.7,10.5-2.5c0.4,3,0.7,5.7,1.1,8.4c-2.9,1.4-4.1,1.6-4.9,0.9c1.2-0.3,2.5-0.5,3.8-0.8v-4.2C28.5,16.3,26.8,16,25,16
	c-1.3,0-2.1,0.9-2.2,2.2c-0.1,1.8-0.1,3.6-0.1,5.3C22.5,24.9,23.5,25.2,24.6,25.3 M45.7,33.6c-5.5,2.2-10.8,4.3-16.4,6.5
	c0.1-1.7,0.2-3.1,0.4-4.6c4.5-1.9,9.1-3.8,13.9-5.8C44.2,30.9,44.9,32.1,45.7,33.6 M27.5,10.1c-1.6,0.4-3,0.6-4.3,1.1
	c-3.1,1-6.1,1.1-9.1-0.1c-1.1-0.4-2.4-0.6-3.6-0.2c-2.2,0.7-4.3,0-6.8-0.6c0.7-0.3,1-0.5,1.4-0.6c3.3-0.9,6.5-1.7,9.8-2.6
	C15.5,7,16.1,6.8,16.7,7c3.4,0.8,6.8,1.7,10.2,2.6C27.1,9.7,27.2,9.9,27.5,10.1 M12.6,11.3c2.2,0.5,4,1,5.9,1.4
	c0.2,0.8,0.6,1.6,0.6,2.4c0.1,4,0,8,0,12c-0.1,0-0.2,0.1-0.3,0.1C16.8,22.1,14.8,16.9,12.6,11.3 M21.5,33.1c2.6,0.8,5,1.6,7.5,2.3
	c-0.1,1.5-0.2,3-0.3,4.8c-2.8-1-5.4-2.1-7.9-2.9C21.1,35.7,21.2,34.9,21.5,33.1 M37,29.9c-2.5,1-4.8,2-7.4,3.1
	c-0.1-1.8-0.2-3.3-0.3-5.1c2.1-0.6,4.2-1.3,6.3-1.9C36.1,27.3,36.6,28.5,37,29.9 M20.2,29.6c2.9-1.3,5.6-1.6,8.6-1.6v4.8
	C25.9,31.8,23.2,30.8,20.2,29.6 M25.3,27.8v-4.5c0.7-0.2,1.4-0.5,2.3-0.8c1,1.5,1.9,2.8,3,4.5C28.7,27.3,27.1,27.5,25.3,27.8
	 M19.7,14.1c-0.2-0.5-0.4-0.8-0.7-1.3c3.6-0.8,7-1.6,10.5-2.4c0.2,0.4,0.4,0.7,0.6,1.2C26.6,12.4,23.2,13.2,19.7,14.1 M27.9,18.1
	c-0.1,0.8-0.2,1.3-0.3,2c-1.5-0.1-2.8-0.2-4.3-0.3v-2.1C24.8,17.8,26.2,18,27.9,18.1 M31.6,21.5c0.7-0.1,1.1-0.2,1.7-0.3
	c0.4,0.7,0.8,1.3,1.2,2c0.4,0.6,0.7,1.2,1.1,1.9c-0.5,0.2-0.8,0.4-1.3,0.6C33.4,24.3,32.6,23,31.6,21.5 M23.3,21.1h2.2
	c-0.5,1.3-0.9,2.4-1.4,3.5C22.8,23.9,22.6,23.2,23.3,21.1 M24.2,16.8c1.8-0.4,3.6-0.2,5.8,0.3C28.5,17.7,26,17.6,24.2,16.8
	 M29.7,18.1v2c-0.4,0.1-0.8,0.2-1.4,0.3v-2.1C28.8,18.2,29.2,18.2,29.7,18.1"/>
</svg>
