<?xml version="1.0" encoding="utf-8"?>
<!-- Generator: Adobe Illustrator 22.1.0, SVG Export Plug-In . SVG Version: 6.00 Build 0)  -->
<svg version="1.1" id="Layer_1" xmlns="http://www.w3.org/2000/svg" xmlns:xlink="http://www.w3.org/1999/xlink" x="0px" y="0px"
	 viewBox="0 0 46.8 46.8" style="enable-background:new 0 0 46.8 46.8;" xml:space="preserve">
<style type="text/css">
	.st0{fill:#42C0EF;}
</style>
<path class="st0" d="M12.4,46L0.8,34.4L34.4,0.8L46,12.4L12.4,46z M4.4,34.4l8.1,8.1l30-30l-8.1-8.1L4.4,34.4z"/>
<path class="st0" d="M21,21.4c0.9-1.3,1.8-1.5,2.4-1.4c1.1,0.2,1.4,0.4,2.4-0.2c0.7-0.5,2.7-0.8,2.4,0c-0.6,1.7-1.3,1.8-2.1,2.3
	c-2.7,1.7-1.7,1.8-1.3,3.7c0.1,0.5,0,0.9-0.3,1.2c-0.7,0.8-2.1,0.4-2.4-0.6c-0.2-0.8-0.8-1.7-2.2-1.9c-1.2-0.1-1.5-0.9-1.5-1.8
	c0-1,1-1.6,1.9-1.2l0,0C20.7,21.7,20.9,21.6,21,21.4"/>
</svg>
