<?xml version="1.0" encoding="utf-8"?>
<!-- Generator: Adobe Illustrator 22.1.0, SVG Export Plug-In . SVG Version: 6.00 Build 0)  -->
<svg version="1.1" id="Layer_1" xmlns="http://www.w3.org/2000/svg" xmlns:xlink="http://www.w3.org/1999/xlink" x="0px" y="0px"
	 viewBox="0 0 46.8 46.8" style="enable-background:new 0 0 46.8 46.8;" xml:space="preserve">
<style type="text/css">
	.st0{fill:#42C0EF;}
</style>
<path class="st0" d="M45.3,12c0-0.5-0.6-0.9-1.1-0.8c0,0.2,0,0.4,0,0.5c-1.4-0.3-2.7-0.6-4-0.9c0,0,0-0.1,0-0.1c0.5,0,0.9,0,1.4-0.1
	c0-0.1,0-0.1,0-0.2c-0.9,0.1-1.8,0.2-2.7,0.2c0,0.4-0.1,0.5-0.1,0.7c0,1,0.1,2,0.1,3c0,1.9-0.1,3.7,0,5.6c0.1,1.4,0.1,1.5-1.3,1.5
	c-3.7-0.1-7.5-0.2-11.2-0.4c-0.4,0-0.8,0-1.1,0c-0.7,0-1.3-0.1-2-0.2c0,0-0.1-0.1-0.2-0.3h2.2c0.1-0.2,0.2-0.3,0.3-0.4
	c0.1,0.1,0.2,0.2,0.3,0.3c0.6,0,0.9-0.4,0.9-0.9c0-2.1,0-4.3,0-6.4c0-0.8-0.5-1.8,0.7-2.3c0-0.1,0.1-0.2,0-0.3
	c-0.3-2.4-0.6-4.7-1-7.1c0-0.2-0.5-0.4-0.7-0.4c-1.7,0-3.3,0.1-5,0.1c-0.4,0-0.8,0-1.3,0.1c-0.3,2.3-0.7,4.5-1,6.8h5.1
	c-0.4,0.6-0.7,1.1-1,1.4c-0.5,0.4-1,1-1.5,1.1c-1.6,0.1-3.1,0-4.7,0c-0.3,0-0.8,0.2-0.9,0.5c-0.3,0.5-0.4,1.1-0.6,1.6
	c-0.2,0.6-0.2,1.4-0.9,1.6c-0.9,0.2-1.7,0.3-2.4,1c-0.1,0.1-0.2,0-0.4,0v-6.5c0.5-0.2,1-0.3,1.4-0.4c0-0.1-0.1-0.1-0.1-0.2
	c-2,0.2-3.9,0.4-5.9,0.6c0,0.3,0,0.5,0,0.7c0,1.1,0,2.1-0.2,3.2c-0.3,1.9-0.3,3.7,0.9,5.3c0.4,0.6,0.2,0.9-0.3,1.3
	c-0.2,0.1-0.4,0.3-0.5,0.5c0,0.1,0,0.2,0.1,0.3h4.6c0,0.1,0,0.2,0,0.4H5.3c-0.8-0.3-1.4,0.1-1.8,1.2c-0.3,0.8-0.6,1.7-0.7,2.6
	c-0.3,1.4-0.6,2.8-0.6,4.3c-0.1,2.3,0,4.6,0,6.9c0,2.1-0.1,4.1-0.1,6.4c0.1,0,0.5,0.2,0.9,0.2c2.9,0.2,5.7,0.4,8.6,0.6
	c2,0.1,4,0.3,5.9,0.4c0.7,0,1.4,0,2.1,0.1c2.4,0.2,4.8,0.4,7.2,0.6c2.5,0.2,4.9,0.2,7.4,0.5c1.5,0.1,2.9,0.1,4-1.1
	c0.2-0.2,0.4-0.3,0.5-0.4c0.9-0.8,1.9-1.5,2.4-2.6c0.2-0.6,0.6-1,0.9-1.6c0.3-0.6,0.7-1.2,0.7-1.7c0.1-3.6,0.2-7.2,0.2-10.7
	c0-0.8,0-1.7-0.3-2.5c-0.6-1.6-0.3-3,1-4.1c1-0.8,1.7-1.8,1.8-3.1C45.4,16.1,45.3,14,45.3,12 M11.9,19.8c0.5,0,1,0.2,1.5,0.2
	c0.7,1,1.8,0.9,2.9,1.1c-0.2,0.1-0.2,0.2-0.3,0.3c-1.4,0.1-2.7,0.2-4.1,0.3c-0.7,0-0.8-0.4-0.8-1C11,20.1,11.3,19.8,11.9,19.8
	 M15.3,22.4h-0.3c-0.7,0.1-1.8,0.7-3,0.3c0-0.1,0-0.2,0-0.3h3C15,22.4,15.2,22.4,15.3,22.4 M35.2,29.8c-0.2,2-0.6,4-0.8,6
	c-0.2,1.9-0.4,3.7-0.7,5.6c-0.1,0.8-0.3,1.5-0.5,2.2c-0.1,0.2-0.4,0.5-0.7,0.5c-2.5,0.4-5.1,0.6-7.6,0.1c-1.1-0.2-2.1-0.6-3-0.9
	c-0.6-2.7-1.1-5.2-1.6-7.8L5.5,34.9c-1.1-0.1-2-1-1.9-2.1c0.1-1.1,0.9-1.9,2-1.9c0,0,0.1,0,0.1,0L20,31.6c0-0.8,0-1.5,0-2.3
	c0.1-2.2,0.3-4.3,1.2-6.4c0.1-0.3,0.8-0.6,1.3-0.6c4.1,0.1,8.2,0.3,12.3,0.4c0.4,0,0.7-0.1,1.1-0.1c0.2,0,0.4,0.1,0.7,0.1
	C35.4,25.2,35.4,27.5,35.2,29.8"/>
<path class="st0" d="M23.1,25.4l10.5,0.5c0,0-0.8,5.2-0.8,6.3l-10.3-0.3C22.5,31.9,22.4,26.3,23.1,25.4"/>
</svg>
