<?xml version="1.0" encoding="utf-8"?>
<!-- Generator: Adobe Illustrator 22.1.0, SVG Export Plug-In . SVG Version: 6.00 Build 0)  -->
<svg version="1.1" id="Layer_1" xmlns="http://www.w3.org/2000/svg" xmlns:xlink="http://www.w3.org/1999/xlink" x="0px" y="0px"
	 viewBox="0 0 46.8 46.8" style="enable-background:new 0 0 46.8 46.8;" xml:space="preserve">
<style type="text/css">
	.st0{fill:#42C0EF;}
</style>
<path class="st0" d="M32.7,32.7c0,3.8,0,7.6,0,11.3c0,1.4-0.3,1.7-1.8,1.7c-4.6,0-9.2,0-13.8,0c-0.1,0-0.3,0-0.4,0
	c-0.9-0.1-1.2-0.5-1.3-1.3c0-1.3,0-2.6,0-3.8c0-6.3,0-12.7,0-19c0-0.9,0.1-1.7,0.7-2.4c0.6-0.7,1.3-1.2,2.2-1.2c3.8,0,7.6,0,11.4,0
	c1.6,0,2.9,1.3,2.9,2.9c0,1.4,0,2.8,0,4.2C32.7,27.6,32.7,30.2,32.7,32.7 M32.1,22.2c-1-0.2-15.4-0.2-16,0
	C15.9,23.5,16,40,16.2,40.7h15.9V22.2z M24.1,16.2c-1.7,0-3.4,0-5.1,0c-0.9,0-1.1-0.2-1.1-1.1c0-1,0-2.1,0-3.1
	c0-0.8,0.3-1.1,1.1-1.1c3.4,0,6.9,0,10.3,0c0.8,0,1.1,0.3,1.1,1.1c0,1,0,2.1,0,3.1c0,0.9-0.2,1.1-1.1,1.1
	C27.5,16.2,25.8,16.2,24.1,16.2 M27.7,10.4c-0.7,0.2-6.5,0.2-7.3,0c0.3-1,0.6-2.1,0.9-3.1c0.6-1.9,1.1-3.8,1.7-5.7
	c0.3-1,0.4-1.1,1.4-1c0.4,0,0.6,0.2,0.8,0.6c0.9,3,1.8,6,2.6,9C27.8,10.2,27.7,10.3,27.7,10.4 M28.7,31.5c0,2.6-2,4.6-4.6,4.6
	s-4.5-2-4.5-4.6s2-4.7,4.6-4.7C26.7,26.8,28.7,28.8,28.7,31.5 M24.1,28.6c-0.7,1.1-1.3,2.1-1.8,3.1c-0.4,0.8-0.2,1.8,0.5,2.3
	s1.9,0.5,2.6,0s1-1.5,0.5-2.3C25.4,30.7,24.8,29.8,24.1,28.6 M18.2,16.8h11.9v0.7H18.2V16.8z"/>
</svg>
