<svg id="Layer_1" data-name="Layer 1" xmlns="http://www.w3.org/2000/svg" viewBox="0 0 256 256"><defs><style>.cls-1{fill:#cef4fe;}.cls-2{fill:#2dc6fb;}</style></defs><circle class="cls-1" cx="128.29" cy="127.19" r="103.64"/><path class="cls-2" d="M171.21,120.56c0,9.1.07,18.2,0,27.29a37.78,37.78,0,0,1-2.06,11.8,32.3,32.3,0,0,1-13,16.56,44.65,44.65,0,0,1-11,5.38c-2.87,1-5.8,1.77-8.74,2.5-2.31.58-4.68.93-7,1.38a13.11,13.11,0,0,1-5.32-.44c-3.42-.76-6.86-1.47-10.23-2.43a49.69,49.69,0,0,1-13-5.74,32,32,0,0,1-15.07-21.18,60.55,60.55,0,0,1-1-13.37c0-6.48,0-13,0-19.44V92.13a2.55,2.55,0,0,1,2.62-2.88c.27,0,.54-.1.81-.13A16.59,16.59,0,0,0,94.25,87,40.76,40.76,0,0,0,106.7,75.66c1-1.27,1.86-2.59,2.76-3.9a2.71,2.71,0,0,1,2.08-1.29,7.34,7.34,0,0,1,.81,0c2.75,0,5.49,0,8.23,0s5.18,0,7.77,0l11.8,0c1.2,0,2.39,0,3.59-.06a3.15,3.15,0,0,1,2.95,1.54,52.73,52.73,0,0,0,7.22,9,30.17,30.17,0,0,0,10.29,7.16,21.94,21.94,0,0,0,4.47,1.09,2.68,2.68,0,0,1,2.6,2.94v28.41Zm-9.72,4.18h0c0-8.3,0-16.6,0-24.9a3,3,0,0,0-2-3.07,39.74,39.74,0,0,1-11.48-7.84,61.13,61.13,0,0,1-6.92-7.73,2.28,2.28,0,0,0-1.92-1c-3.11,0-6.23-.06-9.34-.06-4.31,0-8.62,0-12.93,0a2.53,2.53,0,0,0-2.14,1c-1.21,1.49-2.41,3-3.69,4.41A44,44,0,0,1,96.11,97a2.55,2.55,0,0,0-1.63,2.59q0,6.84,0,13.69,0,9.22,0,18.47c0,4.46,0,8.92,0,13.38a42.38,42.38,0,0,0,.66,8.1,22.24,22.24,0,0,0,4.19,9.31,29.2,29.2,0,0,0,11.43,8.56,59.89,59.89,0,0,0,14.71,4.31,12.62,12.62,0,0,0,3.77.22c2.23-.31,4.44-.84,6.64-1.37a45.25,45.25,0,0,0,14.42-6,23.13,23.13,0,0,0,9.89-12.61,32.19,32.19,0,0,0,1.27-9.66C161.5,138.9,161.49,131.82,161.49,124.74Z"/><path class="cls-2" d="M152.83,144.57s0,.08,0,.12a14.78,14.78,0,0,1-.24,2.22,4.9,4.9,0,0,1-1.9,3,14.09,14.09,0,0,1-5.68,2.18,65.3,65.3,0,0,1-7.89.93c-4.89.36-9.78.27-14.66.17A57.51,57.51,0,0,1,110,151.85a14.17,14.17,0,0,1-4.49-1.83,5.51,5.51,0,0,1-2-3.07c-.07-.22,0-.47-.08-.69-.74-3.29.63-5.58,3.4-7.24a27.42,27.42,0,0,1,8-3.08c1.62-.38,3.26-.63,4.86-.93l.6.55,7.76,7.21,8.36-7.76c1.29.23,2.66.43,4,.71a30,30,0,0,1,6.87,2.25,21.26,21.26,0,0,1,3.43,2.12A5,5,0,0,1,152.83,144.57Z"/><path class="cls-2" d="M152.83,144.57s0,.08,0,.12a14.78,14.78,0,0,1-.24,2.22,4.9,4.9,0,0,1-1.9,3,14.09,14.09,0,0,1-5.68,2.18,65.3,65.3,0,0,1-7.89.93c-4.89.36-9.78.27-14.66.17A57.51,57.51,0,0,1,110,151.85a14.17,14.17,0,0,1-4.49-1.83,5.51,5.51,0,0,1-2-3.07c-.07-.22,0-.47-.08-.69-.74-3.29.63-5.58,3.4-7.24a27.42,27.42,0,0,1,8-3.08c1.62-.38,3.26-.63,4.86-.93l.6.55,7.76,7.21,8.36-7.76c1.29.23,2.66.43,4,.71a30,30,0,0,1,6.87,2.25,21.26,21.26,0,0,1,3.43,2.12A5,5,0,0,1,152.83,144.57Z"/><path class="cls-2" d="M142,116.68a13.51,13.51,0,0,1-2.25,7.79,13.8,13.8,0,0,1-4.63,4.38,14.1,14.1,0,0,1-7.08,1.87,14.93,14.93,0,0,1-1.65-.09h0A14,14,0,0,1,128,102.72a14.35,14.35,0,0,1,5,.88A13.79,13.79,0,0,1,142,116.68Z"/><path class="cls-2" d="M142,116.68a13.51,13.51,0,0,1-2.25,7.79,13.8,13.8,0,0,1-4.63,4.38,14.1,14.1,0,0,1-7.08,1.87,14.93,14.93,0,0,1-1.65-.09h0A14,14,0,0,1,128,102.72a14.35,14.35,0,0,1,5,.88A13.79,13.79,0,0,1,142,116.68Z"/></svg>