<svg width="62" height="62" xmlns="http://www.w3.org/2000/svg" version="1.1" xml:space="preserve">
 <g>
  <title>Layer 1</title>
  <g id="svg_1">
   <path d="m49,10c-1.654,0 -3,1.346 -3,3s1.346,3 3,3s3,-1.346 3,-3s-1.346,-3 -3,-3zm0,4c-0.551,0 -1,-0.449 -1,-1s0.449,-1 1,-1s1,0.449 1,1s-0.449,1 -1,1z" id="svg_2"/>
   <path d="m49,6c-3.86,0 -7,3.14 -7,7s3.14,7 7,7s7,-3.14 7,-7s-3.14,-7 -7,-7zm0,12c-2.757,0 -5,-2.243 -5,-5s2.243,-5 5,-5s5,2.243 5,5s-2.243,5 -5,5z" id="svg_3"/>
   <path d="m59.427,16l2.573,0l0,-6l-2.522,0c-0.543,0 -1.028,-0.324 -1.237,-0.825c-0.211,-0.505 -0.096,-1.082 0.292,-1.468l1.783,-1.775l-4.247,-4.248l-1.809,1.816c-0.367,0.368 -0.914,0.475 -1.393,0.277c-0.526,-0.22 -0.867,-0.731 -0.867,-1.302l0,-2.475l-6,0l0,2.526c0,0.541 -0.322,1.024 -0.821,1.232c-0.509,0.21 -1.087,0.096 -1.475,-0.293l-1.772,-1.781l-4.247,4.248l1.783,1.775c0.388,0.387 0.503,0.963 0.292,1.469c-0.21,0.5 -0.695,0.824 -1.238,0.824l-22.623,0c-0.465,-2.279 -2.485,-4 -4.899,-4l-9,0c-1.103,0 -2,0.897 -2,2l0,40c0,1.103 0.897,2 2,2l2,0l0,10c0,1.103 0.897,2 2,2l44,0c1.103,0 2,-0.897 2,-2l0,-36.546c0,-0.528 0.315,-1.001 0.84,-1.22c0.495,-0.207 1.061,-0.095 1.441,0.287l1.787,1.795l4.247,-4.248l-1.747,-1.74c-0.41,-0.408 -0.531,-1.017 -0.309,-1.55c0.198,-0.472 0.656,-0.778 1.168,-0.778zm-13.427,34l-4,0c-1.103,0 -2,0.897 -2,2l0,4l-25.026,0c0.635,-0.838 1.026,-1.87 1.026,-3l0,-9l28,0l0,-21.702c0.329,-0.199 0.756,-0.234 1.16,-0.065c0.51,0.214 0.84,0.709 0.84,1.262l0,26.505zm-1.414,2l-2.586,2.586l0,-2.586l2.586,0zm-34.586,-2l1,0c1.654,0 3,1.346 3,3s-1.346,3 -3,3l-1,0l0,-6zm32,-26l0,18l-26,0l0,-18l26,0zm-2.396,-5.839l-2.074,1.784l2.056,2.055l-23.586,0l0,-10l20,0l0,4l2.639,0c0.48,0 0.905,0.307 1.128,0.842c0.207,0.494 0.123,1.031 -0.163,1.319zm-37.604,-10.161l9,0c1.654,0 3,1.346 3,3l0,38.002c-0.836,-0.628 -1.875,-1.002 -3,-1.002l-9,0l0,-40zm4,52l0,-10l2,0l0,6c0,1.103 0.897,2 2,2l31.414,0l6.586,-6.586l0,-25.414l2,0l0,34l-44,0zm51.157,-40.254l0.327,0.326l-1.413,1.413l-0.373,-0.375c-0.956,-0.96 -2.38,-1.242 -3.666,-0.706c-1.234,0.515 -2.032,1.713 -2.032,3.05l0,0.546l-2,0l0,-0.505c0,-1.362 -0.813,-2.582 -2.068,-3.105c-1.25,-0.523 -2.646,-0.269 -3.608,0.702l-0.379,0.44l-1.477,-1.477l0.494,-0.427c0.918,-0.914 1.172,-2.311 0.634,-3.592c-0.511,-1.237 -1.672,-2.036 -2.957,-2.036l-0.639,0l0,-2l0.522,0c1.353,0 2.563,-0.807 3.083,-2.054c0.525,-1.258 0.24,-2.693 -0.727,-3.656l-0.363,-0.361l1.413,-1.413l0.358,0.36c0.963,0.968 2.401,1.253 3.662,0.728c1.247,-0.52 2.052,-1.728 2.052,-3.078l0,-0.526l2,0l0,0.475c0,1.381 0.824,2.617 2.098,3.148c1.232,0.514 2.638,0.234 3.58,-0.711l0.394,-0.396l1.413,1.413l-0.363,0.361c-0.967,0.962 -1.252,2.397 -0.727,3.655c0.52,1.248 1.73,2.055 3.083,2.055l0.522,0l0,2l-0.573,0c-1.321,0 -2.504,0.788 -3.013,2.008c-0.537,1.287 -0.245,2.754 0.743,3.738z" id="svg_4"/>
   <path d="m40,40l0,-12l-6,0l0,10l-2,0l0,-12l-6,0l0,12l-2,0l0,-6l-6,0l0,8l22,0zm-4,-10l2,0l0,8l-2,0l0,-8zm-8,-2l2,0l0,10l-2,0l0,-10zm-8,6l2,0l0,4l-2,0l0,-4z" id="svg_5"/>
   <rect x="18" y="46" width="2" height="2" id="svg_6"/>
   <rect x="22" y="46" width="8" height="2" id="svg_7"/>
   <rect x="18" y="50" width="2" height="2" id="svg_8"/>
   <rect x="22" y="50" width="16" height="2" id="svg_9"/>
   <rect x="32" y="46" width="6" height="2" id="svg_10"/>
   <rect x="18" y="18" width="16" height="2" id="svg_11"/>
   <rect x="18" y="14" width="4" height="2" id="svg_12"/>
   <rect x="24" y="14" width="10" height="2" id="svg_13"/>
  </g>
 </g>

</svg>