<svg id="Layer_1" data-name="Layer 1" xmlns="http://www.w3.org/2000/svg" viewBox="0 0 256 256"><defs><style>.cls-1{fill:#cef4fe;}.cls-2{fill:#2dc6fb;}</style></defs><circle class="cls-1" cx="128" cy="128" r="103.95"/><path class="cls-2" d="M128,55.36A72.64,72.64,0,1,0,200.64,128,72.73,72.73,0,0,0,128,55.36Zm0,137.89A65.25,65.25,0,1,1,193.25,128,65.32,65.32,0,0,1,128,193.25Z"/><path class="cls-2" d="M128,55.36A72.64,72.64,0,1,0,200.64,128,72.73,72.73,0,0,0,128,55.36Zm0,137.89A65.25,65.25,0,1,1,193.25,128,65.32,65.32,0,0,1,128,193.25Z"/><path class="cls-2" d="M134.35,128a6.52,6.52,0,0,1-1.43,4.12,5.61,5.61,0,0,1-.95,1,6.71,6.71,0,1,1-8.62-10.29,6.34,6.34,0,0,1,1-.69,6.67,6.67,0,0,1,6.57,0,5.24,5.24,0,0,1,1,.69,6.33,6.33,0,0,1,1.47,1.71,5.45,5.45,0,0,1,.49,1A6.44,6.44,0,0,1,134.35,128Z"/><rect class="cls-2" x="124.35" y="93.43" width="6.57" height="36.28" rx="1.09"/><rect class="cls-2" x="128.63" y="125.55" width="30.26" height="6.57" rx="1.09"/><rect class="cls-2" x="173.19" y="125.55" width="12.37" height="6.57" rx="1.09"/><rect class="cls-2" x="173.19" y="125.55" width="12.37" height="6.57" rx="1.09"/><rect class="cls-2" x="69.06" y="125.55" width="12.36" height="6.57" rx="1.09"/><rect class="cls-2" x="69.06" y="125.55" width="12.36" height="6.57" rx="1.09"/><rect class="cls-2" x="124.03" y="174.72" width="6.56" height="12.36" rx="1.09"/><rect class="cls-2" x="124.03" y="174.72" width="6.56" height="12.36" rx="1.09"/><rect class="cls-2" x="124.03" y="70.58" width="6.56" height="12.37" rx="1.09"/><rect class="cls-2" x="124.03" y="70.58" width="6.56" height="12.37" rx="1.09"/></svg>