<svg id="Layer_1" data-name="Layer 1" xmlns="http://www.w3.org/2000/svg" viewBox="0 0 256 256"><defs><style>.cls-1{fill:#cef4fe;}.cls-2{fill:#2dc6fb;}</style></defs><circle class="cls-1" cx="128.29" cy="127.19" r="103.64"/><path class="cls-2" d="M128,55.36A72.64,72.64,0,1,0,200.64,128,72.73,72.73,0,0,0,128,55.36Zm0,137.89A65.25,65.25,0,1,1,193.25,128,65.32,65.32,0,0,1,128,193.25Z"/><path class="cls-2" d="M128,55.36A72.64,72.64,0,1,0,200.64,128,72.73,72.73,0,0,0,128,55.36Zm0,137.89A65.25,65.25,0,1,1,193.25,128,65.32,65.32,0,0,1,128,193.25Z"/><rect class="cls-2" x="193.19" y="125.55" width="12.37" height="6.57"/><rect class="cls-2" x="183.19" y="125.55" width="22.37" height="6.57" rx="1.4"/><rect class="cls-2" x="49.06" y="125.55" width="12.36" height="6.57"/><rect class="cls-2" x="49.06" y="125.55" width="22.36" height="6.57" rx="1.4"/><rect class="cls-2" x="124.03" y="194.72" width="6.56" height="12.36"/><rect class="cls-2" x="124.03" y="184.72" width="6.56" height="22.36"/><rect class="cls-2" x="124.03" y="50.58" width="6.56" height="12.37"/><rect class="cls-2" x="124.03" y="50.58" width="6.56" height="22.37" rx="1.4"/><path class="cls-2" d="M155.25,156.14l-4.14-10.35A178.77,178.77,0,0,0,139.29,122c1.88-3.16,3.89-6.3,6-9.34l.69-1a18.63,18.63,0,0,0,3.3-10.62,19,19,0,0,0-3.75-11.24,17.41,17.41,0,0,0-4.64-4.33A24,24,0,0,0,113,87a11.47,11.47,0,0,0-2,2l-.56.76A19,19,0,0,0,106.75,101a18.65,18.65,0,0,0,3.3,10.62l.69,1c2.08,3,4.09,6.17,6,9.33a168.92,168.92,0,0,0-11.81,23.85l-4.14,10.35a2,2,0,0,0,.38,2.12L115,173.63a2,2,0,0,0,1.51.68h0a2,2,0,0,0,1.37-.53,2.07,2.07,0,0,0,.57-.87l6.42-19.26c1-2.91,2-5.83,3.17-8.69,1.14,2.87,2.21,5.79,3.17,8.69l6.42,19.26a2,2,0,0,0,1.94,1.4,2,2,0,0,0,.64-.11,2.1,2.1,0,0,0,.87-.57l13.83-15.37A2,2,0,0,0,155.25,156.14ZM137,126a175.68,175.68,0,0,1,10.37,21.26l3.67,9.18-10.65,11.83L135,152.36c-1.42-4.26-3-8.54-4.82-12.71C132.25,135,134.51,130.45,137,126Zm2.82-36.4-5.17,6.9a24.1,24.1,0,0,0-13.19,0l-5.2-6.93a19.91,19.91,0,0,1,22.46-.79A12.14,12.14,0,0,1,139.78,89.64Zm-7.84,10.45L128,105.35l-3.92-5.23a20.26,20.26,0,0,1,7.86,0Zm-18.53-7.41,12,16.07c-2.21,3-4.35,6.14-6.35,9.29-1.62-2.64-3.3-5.24-5-7.74l-.69-1a14.43,14.43,0,0,1-2.58-8.31A14.76,14.76,0,0,1,113.41,92.68Zm7.42,30.3c2.75-4.51,5.74-8.94,8.91-13.16l12.85-17.14a14.76,14.76,0,0,1,2.58,8.31,14.41,14.41,0,0,1-2.58,8.31l-.69,1A168.55,168.55,0,0,0,121,152.36l-5.31,15.95L105,156.48l3.67-9.18A166.26,166.26,0,0,1,120.83,123Z"/></svg>