<svg id="Layer_1" data-name="Layer 1" xmlns="http://www.w3.org/2000/svg" viewBox="0 0 256 256"><defs><style>.cls-1{fill:#fff;stroke:#a3a3a3;stroke-miterlimit:10;stroke-width:5px;}.cls-2{fill:#555;}</style></defs><circle class="cls-1" cx="128" cy="128" r="102.4"/><path class="cls-2" d="M187.84,75.16c-18.08,5.4-42.74,17.26-58.59,28.07-1.63,1.11-3.24,2.26-4.82,3.43A173.65,173.65,0,0,0,91.29,79.78c-9.08-5.71-24.52,5.29-19.69,15.58,2.69,5.74,11.36,7.54,16.65,10.08a216.75,216.75,0,0,1,22.11,12.78c-4.1,3.75-8,7.69-11.77,11.81a187.5,187.5,0,0,0-15,18.92c-2.41,3.45-5,6.89-6.63,10.58a16.05,16.05,0,0,0-.78,12c1.87,5.67,7.71,12,14.26,10.37a13.73,13.73,0,0,0,7.75-5.95c2.69-4,3.87-8.82,5.88-13.15a253.48,253.48,0,0,1,20.42-34.55c16.06,12.4,37,34.81,42.49,53.85,0,0-8.69-34.58-33.74-65.46C145.78,101.11,170,80.5,187.84,75.16Z"/></svg>