<svg id="Layer_1" data-name="Layer 1" xmlns="http://www.w3.org/2000/svg" viewBox="0 0 256 256"><defs><style>.cls-1{fill:#cef4fe;}.cls-2{fill:#2dc6fb;}</style></defs><circle class="cls-1" cx="128.37" cy="127.72" r="103.95"/><polygon class="cls-2" points="176.99 65.84 176.99 65.84 176.99 65.84 176.99 65.84"/><path class="cls-2" d="M174.7,79.18H158.24a3.29,3.29,0,0,0,0,6.57h13.18v99.59H84.58V85.75H97.76a3.29,3.29,0,0,0,0-6.57H81.3A3.29,3.29,0,0,0,78,82.47V188.63a3.28,3.28,0,0,0,3.29,3.27h93.4a3.29,3.29,0,0,0,3.29-3.27V82.47A3.29,3.29,0,0,0,174.7,79.18Z"/><path class="cls-2" d="M150.35,70.19H139.92a12.09,12.09,0,1,0-23.85,0H105.65a3.28,3.28,0,0,0-3.28,3.29v18a3.28,3.28,0,0,0,3.28,3.28h44.7a3.29,3.29,0,0,0,3.28-3.28v-18A3.29,3.29,0,0,0,150.35,70.19Zm-26.47,4.75a3.25,3.25,0,0,0-.31-3.45,5.41,5.41,0,0,1-1.1-3.3,5.53,5.53,0,1,1,9.95,3.31,3.25,3.25,0,0,0-.32,3.44A3.29,3.29,0,0,0,135,76.76h12V88.17H108.93V76.76h12A3.25,3.25,0,0,0,123.88,74.94Z"/><path class="cls-2" d="M144.24,139.26c-7.28,0-12.84,0-18-.09a6.65,6.65,0,0,1-3.62-1c-1.07-.79-.83-2.24-.44-3.33a2.32,2.32,0,0,1,2.51-1.64c2.6,0,5.2,0,7.8,0h10.32l5.31,0,5.21,0c2.75,0,5,0,7.1.07a2.85,2.85,0,0,1,2.49,4.45,4.13,4.13,0,0,1-2,1.37,7.86,7.86,0,0,1-2.34.25h-14.3Z"/><path class="cls-2" d="M153.52,114.17c0,1.92-1.15,2.9-3.33,2.92H130.06q-2.49,0-5,0c-2.07,0-3.14-1-3.18-2.8a2.9,2.9,0,0,1,3.2-3.29c3.93,0,7.87,0,11.8,0q6.78,0,13.54.06a3.08,3.08,0,0,1,2.28.85A3.15,3.15,0,0,1,153.52,114.17Z"/><path class="cls-2" d="M115.21,99.9l-4.35,3.62a.4.4,0,0,1-.44,0,4,4,0,0,0-1.66-.37h-8.07a4,4,0,0,0-4,4v8.06a4,4,0,0,0,4,4h8.07a4,4,0,0,0,4-4v-8.06s0,0,0-.06l5-4.17a.43.43,0,0,0,.06-.59l-2-2.46A.41.41,0,0,0,115.21,99.9Zm-6.87,15.39h-7.23a.41.41,0,0,1-.42-.41v-7.23a.42.42,0,0,1,.42-.42h4.15a.42.42,0,0,1,.27.74l-1.78,1.47a.42.42,0,0,0,0,.59l2,2.46a.41.41,0,0,0,.59.05l1.73-1.44a.42.42,0,0,1,.69.32v3.46A.41.41,0,0,1,108.34,115.29Z"/><path class="cls-2" d="M115.21,122.07l-4.35,3.63a.42.42,0,0,1-.44,0,4.15,4.15,0,0,0-1.66-.38h-8.07a4,4,0,0,0-4,4v8.07a4,4,0,0,0,4,4h8.07a4,4,0,0,0,4-4V129.4a.43.43,0,0,1,0-.05l5-4.18a.41.41,0,0,0,.06-.58l-2-2.46A.43.43,0,0,0,115.21,122.07Zm-6.87,15.4h-7.23a.42.42,0,0,1-.42-.42v-7.23a.42.42,0,0,1,.42-.42h4.15a.42.42,0,0,1,.27.74l-1.78,1.48a.42.42,0,0,0,0,.59l2,2.46a.42.42,0,0,0,.59.05l1.73-1.45a.42.42,0,0,1,.69.32v3.46A.42.42,0,0,1,108.34,137.47Z"/></svg>