<svg id="Layer_1" data-name="Layer 1" xmlns="http://www.w3.org/2000/svg" viewBox="0 0 256 256"><defs><style>.cls-1{fill:#cef4fe;}.cls-2{fill:#2dc6fb;}</style></defs><circle class="cls-1" cx="128" cy="128" r="103.95"/><path class="cls-2" d="M180,155.7a47.79,47.79,0,0,0-7.87-4.84,68.33,68.33,0,0,0-15.74-5.17c-3.1-.65-6.25-1.1-9.21-1.62L128,161.85c-6.36-5.92-12.53-11.64-19.15-17.79-3.66.69-7.43,1.28-11.14,2.13a62.72,62.72,0,0,0-18.4,7.08c-6.36,3.79-9.49,9-7.8,16.57.12.52,0,1.09.19,1.59.9,2.77,2.13,5.29,4.7,7a31.44,31.44,0,0,0,10.29,4.2c9.38,2.3,19,2.88,28.56,3.08,11.19.24,22.4.44,33.6-.4A145.94,145.94,0,0,0,167,183.2c4.6-.93,9.12-2.14,13-5a11.16,11.16,0,0,0,4.36-6.86,37.37,37.37,0,0,0,.55-5.09A11.56,11.56,0,0,0,180,155.7Zm-14.8,13.51h-6.38v6.52h-4.18v-6.52h-6.41V165h6.41v-6.48h4.18V165h6.38Z"/><path class="cls-2" d="M160.12,102.07a32.12,32.12,0,0,1-64.23.18c.18-17.87,13.91-32.18,32.05-32.19A31.69,31.69,0,0,1,160.12,102.07Z"/></svg>