<svg id="Layer_1" data-name="Layer 1" xmlns="http://www.w3.org/2000/svg" viewBox="0 0 256 256"><defs><style>.cls-1{fill:#cef4fe;}.cls-2{fill:#2dc6fb;}</style></defs><circle class="cls-1" cx="128" cy="128" r="103.95"/><path class="cls-2" d="M169.45,167.19l-15.38-15.38a7.5,7.5,0,0,1-2.18-5.61,28.44,28.44,0,0,1-10,2.1l-15.19,14.12c-6-5.6-11.87-11-18.08-16.81l-1.39-1.29c-3.72.7-7.55,1.3-11.33,2.17a63.83,63.83,0,0,0-18.7,7.2c-6.47,3.86-9.65,9.18-7.93,16.84.12.54,0,1.12.19,1.63.92,2.81,2.16,5.37,4.78,7.14a32.61,32.61,0,0,0,10.46,4.27c9.54,2.33,19.29,2.92,29,3.12,11.37.25,22.77.45,34.16-.4a148.88,148.88,0,0,0,18.38-2.17c4.68-.94,9.27-2.18,13.24-5.07a11.43,11.43,0,0,0,4.43-7c.13-.62.23-1.27.3-1.9a13.64,13.64,0,0,1-14.79-3Z"/><path class="cls-2" d="M115.18,132.36a28.61,28.61,0,0,1-3.07-13A28.89,28.89,0,0,1,159,96.81a32.25,32.25,0,0,0-20.65-25.66,33.66,33.66,0,0,0-11.78-2.05c-18.44,0-32.4,14.55-32.59,32.71A32.65,32.65,0,0,0,115.18,132.36Z"/><path class="cls-2" d="M184.85,151.79l-15.38-15.38a1.91,1.91,0,0,0-2.71,0l-3,3L159,134.7l-.16-.17a23.44,23.44,0,1,0-2.71,2.7l.17.17,4.74,4.74-3,3a1.91,1.91,0,0,0,0,2.71l15.38,15.38a8.06,8.06,0,0,0,11.38,0l.09-.09A8.05,8.05,0,0,0,184.85,151.79ZM141,137.32a17.91,17.91,0,1,1,17.91-17.91A17.92,17.92,0,0,1,141,137.32Zm41.12,23.15-.09.09a4.22,4.22,0,0,1-6,0l-14-14,6.07-6.07,14,14A4.23,4.23,0,0,1,182.15,160.47Z"/></svg>