<svg width="62" height="62" xmlns="http://www.w3.org/2000/svg">
 <title>hospitol, bed, room, patient, clinic, medical</title>

 <g>
  <title>Layer 1</title>
  <g id="svg_1" data-name="Layer 5">
   <path id="svg_2" d="m1,44l9,0l0,10.184a3,3 0 1 0 2,0l0,-4.184l9,0l0,6l-4,0a1,1 0 0 0 -1,1l0,2a1,1 0 0 0 2,0l0,-1l8,0l0,1a1,1 0 0 0 2,0l0,-2a1,1 0 0 0 -1,-1l-4,0l0,-6l25,0l0,4.184a3,3 0 1 0 2,0l0,-10.184l9,0a1,1 0 0 0 1,-1l0,-18a1,1 0 0 0 -2,0l0,9l-2.2,0l-0.5,-2.208a7.567,7.567 0 0 0 -5.066,-5.1a11.851,11.851 0 0 0 -4.027,-0.692l-23.207,0l0,-11l4,0l0,2l-1,0a1,1 0 0 0 -1,1l0,6a1,1 0 0 0 1,1l4,0a1,1 0 0 0 1,-1l0,-6a1,1 0 0 0 -1,-1l-1,0l0,-2l1,0a1,1 0 0 0 1,-1l0,-3a1,1 0 0 0 -2,0l0,2l-12,0l0,-2a1,1 0 0 0 -2,0l0,3a1,1 0 0 0 1,1l5,0l0,11l-3,0a1,1 0 0 0 -1,1l0,7l-4,0l0,-5a1,1 0 0 0 -1,-1l-7,0a1,1 0 0 0 -1,1l0,5l-2,0l0,-12a1,1 0 0 0 -2,0l0,21a1,1 0 0 0 1,1zm28,-21l-2,0l0,-4l2,0l0,4zm-18,35a1,1 0 1 1 1,-1a1,1 0 0 1 -1,1zm1,-10l0,-4l9,0l0,4l-9,0zm37,10a1,1 0 1 1 1,-1a1,1 0 0 1 -1,1zm-1,-10l-25,0l0,-4l25,0l0,4zm10,-6l-56,0l0,-6l56,0l0,6zm-8.458,-13.427a5.609,5.609 0 0 1 3.8,3.664l0.4,1.763l-26.742,0l0,-6l19.207,0a9.831,9.831 0 0 1 3.335,0.573zm-30.542,-0.573l6,0l0,6l-6,0l0,-6zm-13,2l5,0l0,4l-5,0l0,-4z"/>
   <path id="svg_3" d="m43,16l4,0a1,1 0 0 0 1,-1l0,-4l4,0a1,1 0 0 0 1,-1l0,-4a1,1 0 0 0 -1,-1l-4,0l0,-4a1,1 0 0 0 -1,-1l-4,0a1,1 0 0 0 -1,1l0,4l-4,0a1,1 0 0 0 -1,1l0,4a1,1 0 0 0 1,1l4,0l0,4a1,1 0 0 0 1,1zm-4,-7l0,-2l4,0a1,1 0 0 0 1,-1l0,-4l2,0l0,4a1,1 0 0 0 1,1l4,0l0,2l-4,0a1,1 0 0 0 -1,1l0,4l-2,0l0,-4a1,1 0 0 0 -1,-1l-4,0z"/>
  </g>
 </g>
</svg>