<svg id="Layer_1" data-name="Layer 1" xmlns="http://www.w3.org/2000/svg" viewBox="0 0 256 256"><defs><style>.cls-1{fill:#cef4fe;}.cls-2{fill:#2dc6fb;}</style></defs><circle class="cls-1" cx="128.84" cy="127.8" r="103.95"/><path class="cls-2" d="M100.49,152.35v15.83h-25V94.77H91.33v4.06a5.05,5.05,0,0,0,5,5H128a5,5,0,0,0,5-5V94.77h15.87v41.94h6.9V92.9a5,5,0,0,0-5.05-5H133V67.24a5,5,0,0,0-5-5H96.37a5,5,0,0,0-5,5V87.86H73.61a5.06,5.06,0,0,0-5,5V170a5.06,5.06,0,0,0,5,5H110V151.8h-8.94A.56.56,0,0,0,100.49,152.35ZM98.23,69.1H108v10a.55.55,0,0,0,.54.55h7.27a.55.55,0,0,0,.55-.55v-10h9.76V97h-9.76V89.2a.55.55,0,0,0-.55-.56h-7.27a.55.55,0,0,0-.54.55V97H98.23Z"/><path class="cls-2" d="M92.84,112.08a.55.55,0,0,0-.55-.55H84.92a.56.56,0,0,0-.56.55v7a.56.56,0,0,0,.56.55h7.37a.55.55,0,0,0,.55-.55Z"/><path class="cls-2" d="M108.56,112.08a.56.56,0,0,0-.56-.55h-7.37a.56.56,0,0,0-.56.55v7a.56.56,0,0,0,.56.55H108a.56.56,0,0,0,.56-.55Z"/><path class="cls-2" d="M116.34,111.53a.56.56,0,0,0-.56.55v7a.56.56,0,0,0,.56.55h7.38a.55.55,0,0,0,.55-.55v-7a.55.55,0,0,0-.55-.55Z"/><path class="cls-2" d="M140,112.08a.56.56,0,0,0-.56-.55h-7.37a.56.56,0,0,0-.56.55v7a.56.56,0,0,0,.56.55h7.37a.56.56,0,0,0,.56-.55Z"/><path class="cls-2" d="M92.84,128.18a.55.55,0,0,0-.55-.55H84.92a.56.56,0,0,0-.56.55v7a.56.56,0,0,0,.56.55h7.37a.55.55,0,0,0,.55-.55Z"/><path class="cls-2" d="M108,127.63h-7.37a.56.56,0,0,0-.56.55v7a.56.56,0,0,0,.56.55H108a.56.56,0,0,0,.56-.55v-7A.56.56,0,0,0,108,127.63Z"/><path class="cls-2" d="M116.34,135.7h7.38a.55.55,0,0,0,.55-.55v-7a.55.55,0,0,0-.55-.55h-7.38a.56.56,0,0,0-.56.55v7A.56.56,0,0,0,116.34,135.7Z"/><path class="cls-2" d="M139.43,127.63h-7.37a.56.56,0,0,0-.56.55v7a.56.56,0,0,0,.56.55h7.37a.56.56,0,0,0,.56-.55v-7A.56.56,0,0,0,139.43,127.63Z"/><path class="cls-2" d="M92.29,143.73H84.92a.56.56,0,0,0-.56.55v7a.56.56,0,0,0,.56.55h7.37a.55.55,0,0,0,.55-.55v-7A.55.55,0,0,0,92.29,143.73Z"/><path class="cls-2" d="M182.61,142.54h-62a4.83,4.83,0,0,0-4.83,4.83V189a4.83,4.83,0,0,0,4.83,4.83h62a4.83,4.83,0,0,0,4.83-4.83v-41.6A4.83,4.83,0,0,0,182.61,142.54Zm-.67,45.76H121.33V148h60.61Z"/><rect class="cls-2" x="156.31" y="155.49" width="20.87" height="5.44" rx="1.28"/><rect class="cls-2" x="156.31" y="165.57" width="20.87" height="5.44" rx="1.28"/><rect class="cls-2" x="156.31" y="175.65" width="13.2" height="5.44" rx="1.28"/><path class="cls-2" d="M133.49,175.65a8.69,8.69,0,0,1,14,4.94.63.63,0,0,0,.61.51h4.31a.63.63,0,0,0,.62-.71,13.77,13.77,0,0,0-1.55-4.74,14.37,14.37,0,0,0-5-5.31,10.47,10.47,0,1,0-15.08,0,14.32,14.32,0,0,0-5,5.31,14,14,0,0,0-1.55,4.74.63.63,0,0,0,.62.71h4.32a.64.64,0,0,0,.61-.51A8.71,8.71,0,0,1,133.49,175.65Zm4.18-17.33a5,5,0,0,1,6.13,6.14,4.9,4.9,0,0,1-3.43,3.43,5,5,0,0,1-6.14-6.13A4.9,4.9,0,0,1,137.67,158.32Z"/></svg>