<svg id="Layer_1" data-name="Layer 1" xmlns="http://www.w3.org/2000/svg" viewBox="0 0 256 256"><defs><style>.cls-1{fill:#cef4fe;}.cls-2{fill:#2dc6fb;}.cls-3{fill:#00c5fb;}</style></defs><circle class="cls-1" cx="128.29" cy="127.19" r="103.64"/><path class="cls-2" d="M171.21,120.56c0,9.1.07,18.2,0,27.29a37.78,37.78,0,0,1-2.06,11.8,32.3,32.3,0,0,1-13,16.56,44.65,44.65,0,0,1-11,5.38c-2.87,1-5.8,1.77-8.74,2.5-2.31.58-4.68.93-7,1.38a13.11,13.11,0,0,1-5.32-.44c-3.42-.76-6.86-1.47-10.23-2.43a49.69,49.69,0,0,1-13-5.74,32,32,0,0,1-15.07-21.18,60.55,60.55,0,0,1-1-13.37c0-6.48,0-13,0-19.44V92.13a2.55,2.55,0,0,1,2.62-2.88c.27,0,.54-.1.81-.13A16.59,16.59,0,0,0,94.25,87,40.76,40.76,0,0,0,106.7,75.66c1-1.27,1.86-2.59,2.76-3.9a2.71,2.71,0,0,1,2.08-1.29,7.34,7.34,0,0,1,.81,0c2.75,0,5.49,0,8.23,0s5.18,0,7.77,0l11.8,0c1.2,0,2.39,0,3.59-.06a3.15,3.15,0,0,1,2.95,1.54,52.73,52.73,0,0,0,7.22,9,30.17,30.17,0,0,0,10.29,7.16,21.94,21.94,0,0,0,4.47,1.09,2.68,2.68,0,0,1,2.6,2.94v28.41Zm-9.72,4.18h0c0-8.3,0-16.6,0-24.9a3,3,0,0,0-2-3.07,39.74,39.74,0,0,1-11.48-7.84,61.13,61.13,0,0,1-6.92-7.73,2.28,2.28,0,0,0-1.92-1c-3.11,0-6.23-.06-9.34-.06-4.31,0-8.62,0-12.93,0a2.53,2.53,0,0,0-2.14,1c-1.21,1.49-2.41,3-3.69,4.41A44,44,0,0,1,96.11,97a2.55,2.55,0,0,0-1.63,2.59q0,6.84,0,13.69,0,9.22,0,18.47c0,4.46,0,8.92,0,13.38a42.38,42.38,0,0,0,.66,8.1,22.24,22.24,0,0,0,4.19,9.31,29.2,29.2,0,0,0,11.43,8.56,59.89,59.89,0,0,0,14.71,4.31,12.62,12.62,0,0,0,3.77.22c2.23-.31,4.44-.84,6.64-1.37a45.25,45.25,0,0,0,14.42-6,23.13,23.13,0,0,0,9.89-12.61,32.19,32.19,0,0,0,1.27-9.66C161.5,138.9,161.49,131.82,161.49,124.74Z"/><path class="cls-3" d="M149.14,111.13h-9.72V99.82a2.76,2.76,0,0,0-2.76-2.76H119.34a2.77,2.77,0,0,0-2.76,2.76v11.31h-9.72a2.77,2.77,0,0,0-2.76,2.76v42.29a2.77,2.77,0,0,0,2.76,2.76h42.28a2.76,2.76,0,0,0,2.76-2.76V113.89A2.76,2.76,0,0,0,149.14,111.13Zm-28.78-10.29h5.35v5.47a.3.3,0,0,0,.3.31h4a.3.3,0,0,0,.3-.31v-5.47h5.35v15.28h-5.35v-4.26a.3.3,0,0,0-.3-.3h-4a.3.3,0,0,0-.3.3v4.26h-5.35Zm27.76,54.32H134.4v-8.68a.3.3,0,0,0-.3-.3H121.9a.3.3,0,0,0-.3.3v8.68H107.88V114.91h8.7v2.23a2.77,2.77,0,0,0,2.76,2.77h17.32a2.77,2.77,0,0,0,2.76-2.77v-2.23h8.7Z"/><path class="cls-3" d="M117.1,124.1h-4a.31.31,0,0,0-.31.31v3.82a.31.31,0,0,0,.31.3h4a.31.31,0,0,0,.3-.3v-3.82A.31.31,0,0,0,117.1,124.1Z"/><path class="cls-3" d="M125.71,124.1h-4a.3.3,0,0,0-.3.31v3.82a.3.3,0,0,0,.3.3h4a.31.31,0,0,0,.31-.3v-3.82A.31.31,0,0,0,125.71,124.1Z"/><path class="cls-3" d="M134.33,124.1h-4a.31.31,0,0,0-.31.31v3.82a.31.31,0,0,0,.31.3h4a.3.3,0,0,0,.3-.3v-3.82A.3.3,0,0,0,134.33,124.1Z"/><path class="cls-3" d="M138.6,124.41v3.82a.31.31,0,0,0,.31.3h4a.31.31,0,0,0,.3-.3v-3.82a.31.31,0,0,0-.3-.31h-4A.31.31,0,0,0,138.6,124.41Z"/><path class="cls-3" d="M117.1,132.93h-4a.31.31,0,0,0-.31.3v3.82a.3.3,0,0,0,.31.3h4a.3.3,0,0,0,.3-.3v-3.82A.31.31,0,0,0,117.1,132.93Z"/><path class="cls-3" d="M125.71,132.93h-4a.3.3,0,0,0-.3.3v3.82a.29.29,0,0,0,.3.3h4a.3.3,0,0,0,.31-.3v-3.82A.31.31,0,0,0,125.71,132.93Z"/><path class="cls-3" d="M134.33,132.93h-4a.31.31,0,0,0-.31.3v3.82a.3.3,0,0,0,.31.3h4a.29.29,0,0,0,.3-.3v-3.82A.3.3,0,0,0,134.33,132.93Z"/><path class="cls-3" d="M143,132.93h-4a.31.31,0,0,0-.31.3v3.82a.3.3,0,0,0,.31.3h4a.3.3,0,0,0,.3-.3v-3.82A.31.31,0,0,0,143,132.93Z"/><path class="cls-3" d="M117.1,141.75h-4a.31.31,0,0,0-.31.31v3.82a.31.31,0,0,0,.31.3h4a.31.31,0,0,0,.3-.3v-3.82A.31.31,0,0,0,117.1,141.75Z"/><path class="cls-3" d="M143,141.75h-4a.31.31,0,0,0-.31.31v3.82a.31.31,0,0,0,.31.3h4a.31.31,0,0,0,.3-.3v-3.82A.31.31,0,0,0,143,141.75Z"/></svg>