<svg id="Layer_1" data-name="Layer 1" xmlns="http://www.w3.org/2000/svg" viewBox="0 0 256 256"><defs><style>.cls-1{fill:#cef4fe;}.cls-2{fill:#2dc6fb;}</style></defs><circle class="cls-1" cx="128" cy="128" r="103.95"/><path class="cls-2" d="M113.1,137a21.24,21.24,0,0,0-2.09-.68A10.59,10.59,0,0,1,113.1,137Z"/><path class="cls-2" d="M146.62,151.82a.6.6,0,0,0,.27-.63l-1.48-6.94-1.08-.18-19.16,17.78c-6.36-5.92-12.53-11.64-19.15-17.79l-1,.18-1.49,6.95a.61.61,0,0,0,.27.63l9,5.52a.59.59,0,0,1,.06,1l-5.34,4.26a.6.6,0,0,0,0,.92l17.34,14.33a.59.59,0,0,0,.75,0l17.34-14.33a.6.6,0,0,0,0-.92l-5.35-4.26a.6.6,0,0,1,.06-1Z"/><path class="cls-2" d="M161.59,147.82a73.89,73.89,0,0,0-8.05-2.13c-1.29-.27-2.6-.51-3.89-.72l1.74,8.15a.57.57,0,0,1-.26.62l-6.55,4a.59.59,0,0,0-.05,1l4.74,3.79a.58.58,0,0,1,0,.91L125.59,183a.59.59,0,0,1-.75,0l-23.68-19.58a.58.58,0,0,1,0-.91l4.74-3.79a.59.59,0,0,0-.06-1l-6.54-4a.58.58,0,0,1-.27-.62l1.73-8.11c-2,.36-3.94.73-5.89,1.18a62.72,62.72,0,0,0-18.4,7.08c-6.36,3.79-9.49,9-7.8,16.57.12.52,0,1.09.19,1.59.9,2.77,2.13,5.29,4.7,7a31.44,31.44,0,0,0,10.29,4.2c9.38,2.3,19,2.88,28.56,3.08,11.19.24,22.4.44,33.6-.4a145.94,145.94,0,0,0,18.08-2.13c.28-.06.57-.11.85-.18a13.23,13.23,0,0,1-3.36-8.86Z"/><path class="cls-2" d="M138.65,92.72a6,6,0,0,0-5.69,4,5.89,5.89,0,0,0,0,4,6,6,0,0,0,11.38,0,5.89,5.89,0,0,0,0-4A6,6,0,0,0,138.65,92.72Z"/><path class="cls-2" d="M111.65,88.72a10.06,10.06,0,0,1,9.84,8h7.33a10,10,0,0,1,19.67,0h8.42a32.16,32.16,0,0,0-63.38,0h8.29A10,10,0,0,1,111.65,88.72Z"/><path class="cls-2" d="M125.26,134.23a31.68,31.68,0,0,0,32-32.16c0-.44,0-.87,0-1.31h-8.77a10,10,0,0,1-19.67,0h-7.33a10,10,0,0,1-19.67,0H93.08c0,.49,0,1,0,1.48A31.9,31.9,0,0,0,125.26,134.23Z"/><path class="cls-2" d="M111.65,92.72a6,6,0,0,0-5.69,4,5.89,5.89,0,0,0,0,4,6,6,0,0,0,11.38,0,5.89,5.89,0,0,0,0-4A6,6,0,0,0,111.65,92.72Z"/><path class="cls-2" d="M178.29,131a4.7,4.7,0,1,0-6.64,0A4.7,4.7,0,0,0,178.29,131Z"/><path class="cls-2" d="M186.6,136.45H163.35a1.18,1.18,0,1,0,0,2.35h2.23v35.36a9.4,9.4,0,0,0,18.79,0V138.8h2.23a1.23,1.23,0,0,0,.83-.35,1.18,1.18,0,0,0,.34-.83A1.17,1.17,0,0,0,186.6,136.45Zm-10,39.37a2.35,2.35,0,1,1,0-3.32A2.36,2.36,0,0,1,176.63,175.82Zm1.66-8.31a2.35,2.35,0,1,1,0-3.32A2.34,2.34,0,0,1,178.29,167.51ZM182,148.33l-.57,2a4.35,4.35,0,0,1-2.87,2.88l-2,.57a6.69,6.69,0,0,0-4.49,4.49l-.56,2a4.37,4.37,0,0,1-2.87,2.88l-.7.19v-13h3.73a1.16,1.16,0,0,0,.83-.34,1.21,1.21,0,0,0,.35-.83,1.18,1.18,0,0,0-1.18-1.18h-3.73V138.8H182Z"/></svg>