<svg id="Layer_1" data-name="Layer 1" xmlns="http://www.w3.org/2000/svg" viewBox="0 0 256 256"><defs><style>.cls-1{fill:#cef4fe;}.cls-2{fill:#2dc6fb;}</style></defs><circle class="cls-1" cx="128" cy="128" r="103.95"/><path class="cls-2" d="M169.05,123.16h-52a4.82,4.82,0,0,0-4.82,4.83v53.6a4.82,4.82,0,0,0,4.82,4.83h52a4.82,4.82,0,0,0,4.82-4.83V128A4.82,4.82,0,0,0,169.05,123.16Zm-.68,57.76h-50.6V128.66h50.6Z"/><rect class="cls-2" x="125.74" y="146.98" width="30.87" height="5.44" rx="1.28"/><rect class="cls-2" x="125.74" y="136.98" width="30.87" height="5.44" rx="1.28"/><rect class="cls-2" x="125.74" y="157.07" width="20.87" height="5.44" rx="1.28"/><rect class="cls-2" x="125.74" y="167.15" width="13.2" height="5.44" rx="1.28"/><circle class="cls-2" cx="169.16" cy="79.88" r="10.29" transform="translate(-6.94 143.01) rotate(-45)"/><path class="cls-2" d="M173.53,111.5l-5.24-5.24,0,0,0,0L142.82,80.79l0,0,0,0-5.25-5.24a2.57,2.57,0,1,0-3.63,3.63l3.44,3.44L82.58,137.34a20.59,20.59,0,0,0,24.68,32.48V140c0-.17,0-.34,0-.5V128a9.3,9.3,0,0,1,.19-1.91,8.85,8.85,0,0,1-3.18-1l-1.37-.78L123,104.22l5.76,5.77a2.55,2.55,0,0,0,1.83.75,2.51,2.51,0,0,0,1.81-.74,2.6,2.6,0,0,0,0-3.65l-5.77-5.76L141,86.22,162.81,108l-10.12,10.12H160l6.47-6.47,3.44,3.44a2.57,2.57,0,1,0,3.63-3.63ZM97.14,157a5.15,5.15,0,1,1,5.14-5.14A5.15,5.15,0,0,1,97.14,157Z"/></svg>