<svg id="Layer_1" data-name="Layer 1" xmlns="http://www.w3.org/2000/svg" viewBox="0 0 256 256"><defs><style>.cls-1{fill:#cef4fe;}.cls-2{fill:#2dc6fb;}</style></defs><circle class="cls-1" cx="128.29" cy="127.91" r="103.64"/><path class="cls-2" d="M171.21,121.28c0,9.1.07,18.2,0,27.29a37.78,37.78,0,0,1-2.06,11.8,32.3,32.3,0,0,1-13,16.56,44.65,44.65,0,0,1-11,5.38c-2.87,1-5.8,1.77-8.74,2.5-2.31.58-4.68.93-7,1.38a13.11,13.11,0,0,1-5.32-.44c-3.42-.76-6.86-1.47-10.23-2.43a49.69,49.69,0,0,1-13-5.74A32,32,0,0,1,85.78,156.4a60.55,60.55,0,0,1-1-13.37c0-6.48,0-13,0-19.44V92.85A2.55,2.55,0,0,1,87.35,90c.27,0,.54-.1.81-.13a16.59,16.59,0,0,0,6.09-2.13A40.76,40.76,0,0,0,106.7,76.38c1-1.27,1.86-2.59,2.76-3.9a2.71,2.71,0,0,1,2.08-1.29,7.34,7.34,0,0,1,.81,0c2.75,0,5.49,0,8.23,0s5.18-.05,7.77-.05l11.8.05c1.2,0,2.39,0,3.59-.06a3.15,3.15,0,0,1,2.95,1.54,52.73,52.73,0,0,0,7.22,9,30.17,30.17,0,0,0,10.29,7.16,21.94,21.94,0,0,0,4.47,1.09,2.68,2.68,0,0,1,2.6,2.94v28.41Zm-9.72,4.18h0c0-8.3,0-16.6,0-24.9a3,3,0,0,0-2-3.07,39.74,39.74,0,0,1-11.48-7.84,61.13,61.13,0,0,1-6.92-7.73,2.28,2.28,0,0,0-1.92-1c-3.11,0-6.23-.06-9.34-.06-4.31,0-8.62,0-12.93,0a2.53,2.53,0,0,0-2.14,1c-1.21,1.49-2.41,3-3.69,4.41a44,44,0,0,1-15,11.34,2.55,2.55,0,0,0-1.63,2.59q0,6.84,0,13.69,0,9.22,0,18.47c0,4.46,0,8.92,0,13.38a42.38,42.38,0,0,0,.66,8.1,22.24,22.24,0,0,0,4.19,9.31,29.2,29.2,0,0,0,11.43,8.56,59.89,59.89,0,0,0,14.71,4.31,12.62,12.62,0,0,0,3.77.22c2.23-.31,4.44-.84,6.64-1.37a45.25,45.25,0,0,0,14.42-6,23.13,23.13,0,0,0,9.89-12.61,32.19,32.19,0,0,0,1.27-9.66C161.5,139.62,161.49,132.54,161.49,125.46Z"/><circle class="cls-2" cx="128" cy="94.72" r="6.11"/><path class="cls-2" d="M143.11,106.15H112.89a1.53,1.53,0,1,0,0,3h2.89v46a12.22,12.22,0,0,0,24.44,0v-46h2.89a1.54,1.54,0,0,0,1.53-1.53A1.53,1.53,0,0,0,143.11,106.15Zm-13,51.18a3.05,3.05,0,1,1,0-4.32A3.06,3.06,0,0,1,130.16,157.33Zm2.16-10.8a3.05,3.05,0,1,1,0-4.31A3.06,3.06,0,0,1,132.32,146.53Zm4.84-24.94-.74,2.63a5.67,5.67,0,0,1-3.73,3.74l-2.65.74a8.74,8.74,0,0,0-5.84,5.85l-.73,2.62a5.65,5.65,0,0,1-3.73,3.74l-.9.25V124.31h4.84a1.5,1.5,0,0,0,1.08-.45,1.48,1.48,0,0,0,.45-1.07,1.54,1.54,0,0,0-1.53-1.53h-4.84V109.2h18.32Z"/></svg>