<svg id="Layer_1" data-name="Layer 1" xmlns="http://www.w3.org/2000/svg" viewBox="0 0 256 256"><defs><style>.cls-1{fill:#cef4fe;}.cls-2{fill:#2dc6fb;}</style></defs><circle class="cls-1" cx="128" cy="128" r="103.95"/><path class="cls-2" d="M113.1,137a21.24,21.24,0,0,0-2.09-.68A10.59,10.59,0,0,1,113.1,137Z"/><path class="cls-2" d="M176.83,135.16h-62a4.83,4.83,0,0,0-4.83,4.83v41.6a4.83,4.83,0,0,0,4.83,4.83h62a4.83,4.83,0,0,0,4.83-4.83V140A4.83,4.83,0,0,0,176.83,135.16Zm-.67,45.76H115.55V140.66h60.61Z"/><rect class="cls-2" x="150.53" y="148.1" width="20.87" height="5.44" rx="1.28"/><rect class="cls-2" x="150.53" y="158.19" width="20.87" height="5.44" rx="1.28"/><rect class="cls-2" x="150.53" y="168.27" width="13.2" height="5.44" rx="1.28"/><path class="cls-2" d="M119.81,173.71h4.31a.62.62,0,0,0,.61-.51,8.69,8.69,0,0,1,17,0,.62.62,0,0,0,.61.51h4.31a.63.63,0,0,0,.63-.7,14.17,14.17,0,0,0-6.52-10,10.46,10.46,0,1,0-15.08,0,14.17,14.17,0,0,0-6.52,10A.63.63,0,0,0,119.81,173.71Zm8.64-19.33a4.9,4.9,0,0,1,3.44-3.44,5,5,0,0,1,6.13,6.13,4.87,4.87,0,0,1-3.43,3.44A5,5,0,0,1,128.45,154.38Z"/><circle class="cls-2" cx="166.94" cy="79.88" r="10.29" transform="translate(-7.58 141.44) rotate(-45)"/><path class="cls-2" d="M145.77,130.16l18.48-18.48,3.44,3.44a2.57,2.57,0,1,0,3.63-3.63l-5.24-5.24,0,0,0,0L140.61,80.78l0,0,0,0-5.25-5.24a2.57,2.57,0,1,0-3.63,3.63l3.44,3.44L80.37,137.33a20.59,20.59,0,0,0,24.68,32.48V140a9.83,9.83,0,0,1,9.83-9.82ZM94.93,157a5.15,5.15,0,1,1,5.14-5.14A5.15,5.15,0,0,1,94.93,157Zm7.14-32-1.37-.78,20.08-20.07,5.76,5.77a2.55,2.55,0,0,0,1.83.75,2.51,2.51,0,0,0,1.81-.74,2.6,2.6,0,0,0,0-3.65l-5.77-5.76,14.37-14.37L160.6,108l-14.76,14.76-4,2.26a9.59,9.59,0,0,1-8.9,0l-4-2.28a14.75,14.75,0,0,0-13.93,0l-4,2.26A9.56,9.56,0,0,1,102.07,125.06Z"/></svg>