<svg height='100px' width='100px'  fill="#000000" xmlns="http://www.w3.org/2000/svg" xmlns:xlink="http://www.w3.org/1999/xlink" version="1.1" x="0px" y="0px" viewBox="0 0 100 83.333" enable-background="new 0 0 100 83.333" xml:space="preserve"><path d="M47.222,11.111c-4.602,0-8.333,3.731-8.333,8.333c0,0.994,0.183,1.943,0.503,2.828c-0.168-0.022-0.333-0.05-0.503-0.05  c-2.124,0-4.167,2.041-4.167,4.167c0,0.962-0.32,6.41-3.205,6.41c-0.532,0-0.961,0.43-0.961,0.961s0.43,0.962,0.961,0.962  c6.725,0,9.956-4.164,11.066-6.844c0.209-0.388,0.339-0.814,0.404-1.266c1.242,0.735,2.687,1.166,4.234,1.166  c4.602,0,8.333-3.731,8.333-8.333S51.824,11.111,47.222,11.111z"></path><path d="M58.939,45.303c1.289-0.708,2.172-2.062,2.172-3.637v-0.001c0-2.778-1.389-4.165-8.334-9.721  c-1.387-0.916-3.065-1.389-4.851-1.389c-3.932,0-7.259,2.58-8.389,6.136l-3.266,10.775c-0.401,1.406-0.037,2.92,0.962,3.989  l9.722,10.407c0.82,0.879,1.931,1.322,3.046,1.322c1.018,0,2.04-0.372,2.842-1.122c1.683-1.57,1.771-4.207,0.201-5.889l-8.114-8.686  l2.131-7.455l2.671,0.763l-1.698,5.945l7.041,7.536c1.266,1.356,1.929,3.123,1.865,4.977c-0.062,1.854-0.845,3.572-2.2,4.839  c-1.291,1.206-2.973,1.869-4.739,1.869c-1.918,0-3.77-0.803-5.077-2.204l-6.036-6.461V68.75c0,1.918,1.555,3.473,3.473,3.473h11.806  c7.673,0,13.889-6.216,13.889-13.889C68.056,52.341,64.257,47.25,58.939,45.303z"></path><path d="M84.396,60.211l-1.96-2.693C76.556,69.504,64.228,77.778,50,77.778c-19.912,0-36.111-16.199-36.111-36.111h8.333  L11.111,26.389L0,41.667h8.333c0,22.975,18.691,41.667,41.667,41.667c15.389,0,28.844-8.392,36.061-20.832L84.396,60.211z"></path><path d="M91.667,41.667C91.667,18.691,72.975,0,50,0C34.612,0,21.155,8.392,13.939,20.833l1.665,2.289l1.959,2.694  C23.444,13.829,35.772,5.555,50,5.555c19.911,0,36.111,16.2,36.111,36.111h-8.334l11.111,15.277L100,41.667H91.667z"></path></svg>