<svg id="Layer_1" data-name="Layer 1" xmlns="http://www.w3.org/2000/svg" viewBox="0 0 256 256"><defs><style>.cls-1{fill:#cef4fe;}.cls-2{fill:#2dc6fb;}</style></defs><circle class="cls-1" cx="127.54" cy="128.31" r="103.95"/><path class="cls-2" d="M167.66,166a2.45,2.45,0,0,1,0,.27,32.58,32.58,0,0,1-.5,4.65,10.23,10.23,0,0,1-4,6.28c-3.57,2.6-7.7,3.71-11.91,4.56a134.54,134.54,0,0,1-16.53,1.95c-10.24.76-20.49.58-30.72.36-8.76-.18-17.53-.71-26.11-2.81a29.06,29.06,0,0,1-9.41-3.84c-2.35-1.59-3.47-3.89-4.3-6.42-.14-.46-.06-1-.17-1.46-1.54-6.89,1.32-11.68,7.13-15.15A57.49,57.49,0,0,1,88,147.94c3.4-.78,6.84-1.32,10.19-1.95l1.25,1.16c5.58,5.2,10.84,10.08,16.26,15.11,5.86-5.44,11.56-10.74,17.52-16.26,2.7.48,5.58.89,8.42,1.48A63.05,63.05,0,0,1,156,152.21a43.56,43.56,0,0,1,7.19,4.43A10.51,10.51,0,0,1,167.66,166Z"/><path class="cls-2" d="M167.66,166a2.45,2.45,0,0,1,0,.27,32.58,32.58,0,0,1-.5,4.65,10.23,10.23,0,0,1-4,6.28c-3.57,2.6-7.7,3.71-11.91,4.56a134.54,134.54,0,0,1-16.53,1.95c-10.24.76-20.49.58-30.72.36-8.76-.18-17.53-.71-26.11-2.81a29.06,29.06,0,0,1-9.41-3.84c-2.35-1.59-3.47-3.89-4.3-6.42-.14-.46-.06-1-.17-1.46-1.54-6.89,1.32-11.68,7.13-15.15A57.49,57.49,0,0,1,88,147.94c3.4-.78,6.84-1.32,10.19-1.95l1.25,1.16c5.58,5.2,10.84,10.08,16.26,15.11,5.86-5.44,11.56-10.74,17.52-16.26,2.7.48,5.58.89,8.42,1.48A63.05,63.05,0,0,1,156,152.21a43.56,43.56,0,0,1,7.19,4.43A10.51,10.51,0,0,1,167.66,166Z"/><path class="cls-2" d="M145,107.6a28.25,28.25,0,0,1-4.73,16.31,28.8,28.8,0,0,1-9.7,9.19A29.49,29.49,0,0,1,115.75,137a32.7,32.7,0,0,1-3.46-.18h0a29.17,29.17,0,0,1-26-29.07C86.45,91.43,99,78.35,115.59,78.34a30.17,30.17,0,0,1,10.59,1.85A28.9,28.9,0,0,1,145,107.6Z"/><path class="cls-2" d="M145,107.6a28.25,28.25,0,0,1-4.73,16.31,28.8,28.8,0,0,1-9.7,9.19A29.49,29.49,0,0,1,115.75,137a32.7,32.7,0,0,1-3.46-.18h0a29.17,29.17,0,0,1-26-29.07C86.45,91.43,99,78.35,115.59,78.34a30.17,30.17,0,0,1,10.59,1.85A28.9,28.9,0,0,1,145,107.6Z"/><path class="cls-2" d="M192.37,150.74a32,32,0,0,1-.45,4.18,9.2,9.2,0,0,1-3.59,5.64c-3.2,2.34-6.91,3.33-10.69,4.1-2,.39-4,.69-6,.93a14.35,14.35,0,0,0-6.08-12.14,47.67,47.67,0,0,0-7.87-4.84A59.94,59.94,0,0,0,148,145c4.46-4.14,8.85-8.22,13.41-12.44,2.43.43,5,.8,7.56,1.33a56.16,56.16,0,0,1,12.93,4.25,38.37,38.37,0,0,1,6.47,4A9.5,9.5,0,0,1,192.37,150.74Z"/><path class="cls-2" d="M145.74,124.43c-.37,0-.73,0-1.09,0A32.09,32.09,0,0,0,149,107.59a32.89,32.89,0,0,0-19.59-30.4,26.4,26.4,0,1,1,16.33,47.24Z"/></svg>