<svg id="Layer_1" data-name="Layer 1" xmlns="http://www.w3.org/2000/svg" viewBox="0 0 256 256"><defs><style>.cls-1{fill:#cef4fe;}.cls-2{fill:#2dc6fb;}</style></defs><circle class="cls-1" cx="128.29" cy="127.19" r="103.64"/><path class="cls-2" d="M171.21,120.56c0,9.1.07,18.2,0,27.29a37.78,37.78,0,0,1-2.06,11.8,32.3,32.3,0,0,1-13,16.56,44.65,44.65,0,0,1-11,5.38c-2.87,1-5.8,1.77-8.74,2.5-2.31.58-4.68.93-7,1.38a13.11,13.11,0,0,1-5.32-.44c-3.42-.76-6.86-1.47-10.23-2.43a49.69,49.69,0,0,1-13-5.74,32,32,0,0,1-15.07-21.18,60.55,60.55,0,0,1-1-13.37c0-6.48,0-13,0-19.44V92.13a2.55,2.55,0,0,1,2.62-2.88c.27,0,.54-.1.81-.13A16.59,16.59,0,0,0,94.25,87,40.76,40.76,0,0,0,106.7,75.66c1-1.27,1.86-2.59,2.76-3.9a2.71,2.71,0,0,1,2.08-1.29,7.34,7.34,0,0,1,.81,0c2.75,0,5.49,0,8.23,0s5.18,0,7.77,0l11.8,0c1.2,0,2.39,0,3.59-.06a3.15,3.15,0,0,1,2.95,1.54,52.73,52.73,0,0,0,7.22,9,30.17,30.17,0,0,0,10.29,7.16,21.94,21.94,0,0,0,4.47,1.09,2.68,2.68,0,0,1,2.6,2.94v28.41Zm-9.72,4.18h0c0-8.3,0-16.6,0-24.9a3,3,0,0,0-2-3.07,39.74,39.74,0,0,1-11.48-7.84,61.13,61.13,0,0,1-6.92-7.73,2.28,2.28,0,0,0-1.92-1c-3.11,0-6.23-.06-9.34-.06-4.31,0-8.62,0-12.93,0a2.53,2.53,0,0,0-2.14,1c-1.21,1.49-2.41,3-3.69,4.41A44,44,0,0,1,96.11,97a2.55,2.55,0,0,0-1.63,2.59q0,6.84,0,13.69,0,9.22,0,18.47c0,4.46,0,8.92,0,13.38a42.38,42.38,0,0,0,.66,8.1,22.24,22.24,0,0,0,4.19,9.31,29.2,29.2,0,0,0,11.43,8.56,59.89,59.89,0,0,0,14.71,4.31,12.62,12.62,0,0,0,3.77.22c2.23-.31,4.44-.84,6.64-1.37a45.25,45.25,0,0,0,14.42-6,23.13,23.13,0,0,0,9.89-12.61,32.19,32.19,0,0,0,1.27-9.66C161.5,138.9,161.49,131.82,161.49,124.74Z"/><path class="cls-2" d="M134.7,135.15l7.57,11.19A6.34,6.34,0,1,1,140,148l-7.71-11.38a8.91,8.91,0,0,1-3.35.64,9,9,0,0,1-3.72-.8l-6.46,9.13a7.48,7.48,0,1,1-5.82-2.79,7.4,7.4,0,0,1,3.7,1l6.26-8.84a9.05,9.05,0,0,1-2.18-10.57l-10.4-8.08a5.55,5.55,0,0,1-3.27,1.06,5.69,5.69,0,0,1-2.59-.63,5.61,5.61,0,0,1,2.59-10.58,5.6,5.6,0,0,1,5.05,8L122.29,122a9,9,0,0,1,11.15-1.74l7.76-11a7,7,0,0,1,5.11-11.82,6.86,6.86,0,0,1,3,.68,7,7,0,0,1-5.86,12.75L135.61,122a9,9,0,0,1,2.41,5.94l5.88,1.17a5.61,5.61,0,0,1,4.93-3.17H149a5.6,5.6,0,0,1,.11,11.19H149a5.62,5.62,0,0,1-5.59-5.31l-5.7-1.13A9.21,9.21,0,0,1,134.7,135.15Z"/></svg>