<svg height='100px' width='100px'  fill="#000000" xmlns="http://www.w3.org/2000/svg" xmlns:xlink="http://www.w3.org/1999/xlink" version="1.1" x="0px" y="0px" viewBox="0 0 128 128" style="enable-background:new 0 0 128 128;" xml:space="preserve"><path d="M34,16c-5.5,0-10,4.5-10,10c0,5.5,4.5,10,10,10s10-4.5,10-10C44,20.5,39.5,16,34,16z M34,34c-4.1,0-7.6-3.2-8-7.2  c7.6-0.4,9.6-5.4,10.1-8.5c3.4,0.9,5.9,4,5.9,7.7C42,30.4,38.4,34,34,34z"></path><path d="M67,81h-7.3c-0.2-3.4-1.8-6.6-4.5-8.7l-5.9-4.7c-0.3,0.1-0.6,0.2-0.9,0.3L47.9,68l-1.8,0.6l-5.5,1.8c-0.5,0.2-1,0.2-1.6,0.2  c-0.4,0-0.7-0.1-1.1-0.1c-0.5-0.1-1.1-0.3-1.6-0.6c0,0,0,0-0.1,0c-0.8-0.5-1.5-1.3-1.9-2.1c-0.1-0.3-0.3-0.6-0.4-1  c0-0.2-0.1-0.3-0.1-0.5c0-0.2,0-0.3,0-0.5c-0.2,0-0.5,0.1-0.7,0.1c-1.8,0.2-3.4,0.2-4.7,0.1l0.6,1.1l0.6,1l0.1,0.1  c1.3,2.3,0.6,5.2-1.6,6.8c-0.9,0.6-2,1-3,1c-0.7,0-1.3-0.1-1.9-0.4c0.4,2.3,1.9,4.3,3.9,5.4H14c-0.6,0-1,0.4-1,1s0.4,1,1,1h17.6  l3.5,32.6c0.2,2,1.9,3.4,3.8,3.4c2.1,0,3.8-1.6,3.9-3.7L44.3,83H48c0,4.6,0,23.8,0,32.2c0,2.1,1.7,3.8,3.9,3.8h0  c2,0,3.6-1.5,3.8-3.4c1.1-8.9,3.9-32.1,3.9-32.1c0-0.2,0-0.3,0-0.5H67c0.6,0,1-0.4,1-1S67.6,81,67,81z"></path><path d="M41,39.1c-0.4,0-0.8-0.1-1.2-0.1H32c-3.6,0-6.9,1.9-8.7,5.1l-6.7,11.8c-1.8,3.2-1.7,7.2,0.3,10.3l1.8,2.3l4,4.4  c1.1,1.2,2.9,1.4,4.3,0.5c1.3-0.9,1.8-2.8,1-4.2l-0.7-1.4l-0.6-1.2l-0.7-1.3l-1.5-2.8c-0.2-0.3-0.3-0.6-0.3-0.9  c-0.1-0.7,0-1.4,0.4-2c0.1-0.1,0.1-0.2,0.2-0.3c1.3-1.7,4-4.9,8-8.3c0,0,0.1,0,0.1-0.1c2.2-1.8,4.4-3.5,6.3-4.7  c0.2-0.1,0.4-0.2,0.6-0.2c0.1,0,0.2,0,0.3,0c0.2,0,0.4,0.2,0.6,0.5c0.9,2,2.8,4.6,6.5,5.1c0.4,0,0.6,0.3,0.6,0.4c0,0,0,0,0,0  c0.1,0.1,0.1,0.2,0.1,0.3c0,0.2,0.1,0.4,0,0.6l-0.2,0.5L46,57.8c-0.3,0.8-0.8,1.4-1.5,1.7l0,0l-6.8,3.2c-0.2,0.1-0.4,0.2-0.6,0.4  c-0.7,0.6-1.1,1.4-1.2,2.3c0,0.2,0,0.4,0,0.6c0,0.1,0.1,0.3,0.1,0.4c0.1,0.3,0.2,0.6,0.4,0.9c0,0.1,0.1,0.1,0.2,0.2  c0.2,0.3,0.5,0.5,0.7,0.7c0.8,0.5,1.7,0.6,2.6,0.3l7.5-2.4l0.3-0.1c3.5-1.1,5.9-4.2,6.2-7.7c0-0.3,0-0.5,0-0.8l0-3.4l0-3.2l0-2.7  C55.3,46.8,56,45,56,43c0-4.4-3.6-8-8-8C45,35,42.4,36.6,41,39.1z M48,37c3.3,0,6,2.7,6,6c0,1.4-0.5,2.7-1.3,3.7  C51.6,48.1,49.9,49,48,49c-3.3,0-6-2.7-6-6c0-1.3,0.5-2.6,1.2-3.6C44.3,37.9,46,37,48,37z"></path><path d="M111,29h-6v-1.5c0-1.9-1.6-3.5-3.5-3.5h0c-1.9,0-3.5,1.6-3.5,3.5V29H82v-1.5c0-1.9-1.6-3.5-3.5-3.5c-1.9,0-3.5,1.6-3.5,3.5  V29h-6c-1.1,0-2,0.9-2,2v6v30c0,1.1,0.9,2,2,2h42c1.1,0,2-0.9,2-2V37v-6C113,29.9,112.1,29,111,29z M111,67H69V38h42V67z M69,31h6.1  c0.2,1.7,1.7,3,3.4,3c1.8,0,3.2-1.3,3.4-3h16.1c0.2,1.7,1.7,3,3.4,3h0c1.8,0,3.2-1.3,3.4-3h6v5H69V31z M77,29v-1.5  c0-0.8,0.7-1.5,1.5-1.5s1.5,0.7,1.5,1.5V29v1v0.5c0,0.2,0,0.3-0.1,0.5c-0.2,0.6-0.8,1-1.4,1s-1.2-0.4-1.4-1C77,30.8,77,30.7,77,30.5  V30V29z M100,29v-1.5c0-0.8,0.7-1.5,1.5-1.5c0.8,0,1.5,0.7,1.5,1.5V29v1v0.5c0,0.2,0,0.3-0.1,0.5c-0.2,0.6-0.8,1-1.4,1  c-0.7,0-1.2-0.4-1.4-1c-0.1-0.2-0.1-0.3-0.1-0.5V30V29z"></path><path d="M100,51h6c1.1,0,2-0.9,2-2v-6c0-1.1-0.9-2-2-2h-6c-1.1,0-2,0.9-2,2v6C98,50.1,98.9,51,100,51z M106,49h-6v-6h6V49z"></path><path d="M87,51h6c1.1,0,2-0.9,2-2v-6c0-1.1-0.9-2-2-2h-6c-1.1,0-2,0.9-2,2v6C85,50.1,85.9,51,87,51z"></path><path d="M74,51h6c1.1,0,2-0.9,2-2v-6c0-1.1-0.9-2-2-2h-6c-1.1,0-2,0.9-2,2v6C72,50.1,72.9,51,74,51z M80,49h-6v-6h6V49z"></path><path d="M87,64h6c1.1,0,2-0.9,2-2v-6c0-1.1-0.9-2-2-2h-6c-1.1,0-2,0.9-2,2v6C85,63.1,85.9,64,87,64z M93,62h-6v-6h6V62z"></path><path d="M100,64h6c1.1,0,2-0.9,2-2v-6c0-1.1-0.9-2-2-2h-6c-1.1,0-2,0.9-2,2v6C98,63.1,98.9,64,100,64z M106,62h-6v-6h6V62z"></path><path d="M74,64h6c1.1,0,2-0.9,2-2v-6c0-1.1-0.9-2-2-2h-6c-1.1,0-2,0.9-2,2v6C72,63.1,72.9,64,74,64z"></path></svg>