<svg id="Layer_1" data-name="Layer 1" xmlns="http://www.w3.org/2000/svg" viewBox="0 0 256 256"><defs><style>.cls-1{fill:#cef4fe;}.cls-2{fill:#2dc6fb;}</style></defs><circle class="cls-1" cx="127.56" cy="128.12" r="103.95"/><path class="cls-2" d="M115.54,128.39a3.36,3.36,0,0,1-3.1-2.09c-7.18-.81-11.67-3.06-14.44-5.35a28.57,28.57,0,1,0,27.35-36.67C109.22,84.28,97,97,96.85,112.9c0,.71,0,1.43.06,2.14a11.22,11.22,0,0,0,2.87,3.5c2.14,1.81,6.07,4,12.9,4.78a3.34,3.34,0,1,1,2.86,5.07Z"/><path class="cls-2" d="M85.65,129a4.29,4.29,0,0,0,3.13.89,5.93,5.93,0,0,0,4.38-3,14.94,14.94,0,0,0,2.31-8.24,15.81,15.81,0,0,0-1.55-7.44,7.44,7.44,0,0,0-2.86-3.42c-.37-.22-1-.42-.86-1.13.19-1.68.24-3.37.5-5a37.3,37.3,0,0,1,9.69-20.17,34.64,34.64,0,0,1,8.81-6.88A33.66,33.66,0,0,1,144,76a34.51,34.51,0,0,1,6.61,5.64,37.74,37.74,0,0,1,8.08,13.84,37.33,37.33,0,0,1,1.87,11.14,1,1,0,0,1-.37.8,7.86,7.86,0,0,0-3.08,3.36,17.07,17.07,0,0,0-1,12.78,10.46,10.46,0,0,0,2.78,4.8,4.77,4.77,0,0,0,6.38.55,8.73,8.73,0,0,0,2.67-3.34,17.39,17.39,0,0,0,.52-13.14,8.19,8.19,0,0,0-3.66-4.84,1.81,1.81,0,0,1-1-1.69,68.41,68.41,0,0,0-.84-7A40,40,0,0,0,146.7,73.72a37.31,37.31,0,0,0-21.36-7c-2.29.26-4.61.4-6.87.82A36.83,36.83,0,0,0,99.28,77.75a40.89,40.89,0,0,0-3.46,3.86,39.43,39.43,0,0,0-5.61,9.51,43.07,43.07,0,0,0-3.31,15.51.86.86,0,0,1-.33.64,8.4,8.4,0,0,0-4,4.65,16.59,16.59,0,0,0-1.14,8.24C81.79,123.6,82.76,126.77,85.65,129Z"/><path class="cls-2" d="M158.59,154.53a65.3,65.3,0,0,0-7.33-1.94c-2.82-.59-5.69-1-8.39-1.48L125.42,167.3c-5.79-5.39-11.41-10.6-17.44-16.2-3.33.63-6.77,1.17-10.15,1.94a57.21,57.21,0,0,0-16.75,6.45c-5.8,3.45-8.65,8.22-7.11,15.09.11.48,0,1,.18,1.45.82,2.52,1.94,4.82,4.28,6.39a28.61,28.61,0,0,0,9.37,3.83c8.54,2.09,17.28,2.62,26,2.8,10.19.22,20.4.4,30.6-.36a133.57,133.57,0,0,0,16.47-1.94l.77-.16a12.11,12.11,0,0,1-3.06-8.07Z"/><path class="cls-2" d="M167.76,139.19a4.28,4.28,0,1,0,0-6.06A4.28,4.28,0,0,0,167.76,139.19Z"/><path class="cls-2" d="M181.37,144.17H160.2a1.07,1.07,0,1,0,0,2.14h2v32.21a8.46,8.46,0,0,0,2.51,6,8.55,8.55,0,0,0,14.6-6V146.31h2a1.12,1.12,0,0,0,.76-.32,1.07,1.07,0,0,0-.76-1.82ZM172.29,180a2.14,2.14,0,1,1,0-3A2.14,2.14,0,0,1,172.29,180Zm1.52-7.57a2.14,2.14,0,1,1,0-3A2.14,2.14,0,0,1,173.81,172.46ZM177.2,155l-.52,1.84a3.94,3.94,0,0,1-2.61,2.62l-1.86.52a6.12,6.12,0,0,0-4.09,4.09l-.51,1.84a4,4,0,0,1-2.61,2.62l-.64.18V156.89h3.4a1,1,0,0,0,.75-.31,1.05,1.05,0,0,0,.32-.75,1.08,1.08,0,0,0-1.07-1.08h-3.4v-8.44H177.2Z"/></svg>