<svg id="Layer_1" data-name="Layer 1" xmlns="http://www.w3.org/2000/svg" viewBox="0 0 256 256"><defs><style>.cls-1{fill:#cef4fe;}.cls-2{fill:#2dc6fb;}</style></defs><circle class="cls-1" cx="128" cy="128" r="103.95"/><path class="cls-2" d="M165,183c-.28.07-.57.12-.85.18A145.94,145.94,0,0,1,146,185.33c-11.2.84-22.41.64-33.6.4-9.58-.2-19.18-.78-28.56-3.08a31.44,31.44,0,0,1-10.29-4.2c-2.57-1.73-3.8-4.25-4.7-7-.16-.5-.07-1.07-.19-1.59-1.69-7.54,1.44-12.78,7.8-16.57a62.72,62.72,0,0,1,18.4-7.08c3.71-.85,7.48-1.44,11.14-2.13,6.62,6.15,12.79,11.87,19.15,17.79l19.16-17.78c3,.52,6.11,1,9.21,1.62a73.89,73.89,0,0,1,8.05,2.13v26.34A13.23,13.23,0,0,0,165,183Z"/><path class="cls-2" d="M157.26,102.07a32.12,32.12,0,0,1-64.23.17c.19-17.86,13.91-32.17,32.06-32.18A31.68,31.68,0,0,1,157.26,102.07Z"/><path class="cls-2" d="M178.3,131a4.7,4.7,0,1,1,0-6.65A4.7,4.7,0,0,1,178.3,131Z"/><path class="cls-2" d="M186.61,136.45H163.36a1.18,1.18,0,1,0,0,2.35h2.23v35.36a9.4,9.4,0,0,0,18.79,0V138.8h2.23a1.23,1.23,0,0,0,.83-.35,1.18,1.18,0,0,0,.34-.83A1.17,1.17,0,0,0,186.61,136.45Zm-10,39.37a2.35,2.35,0,1,1,0-3.32A2.36,2.36,0,0,1,176.64,175.82Zm1.66-8.31a2.35,2.35,0,1,1,0-3.32A2.34,2.34,0,0,1,178.3,167.51ZM182,148.33l-.57,2a4.35,4.35,0,0,1-2.87,2.88l-2,.57a6.69,6.69,0,0,0-4.49,4.49l-.56,2a4.37,4.37,0,0,1-2.87,2.88l-.7.19v-13h3.73a1.16,1.16,0,0,0,.83-.34,1.21,1.21,0,0,0,.35-.83,1.18,1.18,0,0,0-1.18-1.18h-3.73V138.8H182Z"/></svg>