<svg id="Layer_1" data-name="Layer 1" xmlns="http://www.w3.org/2000/svg" viewBox="0 0 256 256"><defs><style>.cls-1{fill:#fff;stroke:#a3a3a3;stroke-miterlimit:10;stroke-width:5px;}.cls-2{fill:#555;}</style></defs><circle class="cls-1" cx="128" cy="128" r="102.4"/><path class="cls-2" d="M175.26,71.68l0,0s-.06,0-.09-.06a5.16,5.16,0,0,0-.9-.55c-.1-.05-.18-.13-.28-.18h0c-.11,0-.2-.12-.31-.16a4.82,4.82,0,0,0-1.31-.25c-.14,0-.27-.07-.41-.07a4.89,4.89,0,0,0-1.75.3L59.22,111A5,5,0,0,0,58,119.85l33.54,24L96.28,177a5.06,5.06,0,0,0,3.75,4.17,4.87,4.87,0,0,0,1.25.16,5,5,0,0,0,4-2l11.9-15.86,31.2,26.77a5.1,5.1,0,0,0,3.29,1.21,4.91,4.91,0,0,0,1.68-.29,5.06,5.06,0,0,0,3.28-3.84L177,76.43A5,5,0,0,0,175.26,71.68Zm-62.61,81-.36.52-7.74,10.32L101.62,143,145.37,105Z"/></svg>