<svg id="Layer_1" data-name="Layer 1" xmlns="http://www.w3.org/2000/svg" viewBox="0 0 256 256"><defs><style>.cls-1{fill:#cef4fe;}.cls-2{fill:#2dc6fb;}</style></defs><circle class="cls-1" cx="128.37" cy="127.72" r="103.95"/><path class="cls-2" d="M179.31,108.05c0-2.81-.73-3.57-3.54-3.73-.54,0-1.08,0-1.63,0l-2.33,0h-9.1v-2c0-1.23,0-2.42,0-3.59,0-2.61,0-5.07,0-7.54s-1-3.42-3.52-3.43H145.62V82.46c0-2.25,0-4.39,0-6.53,0-4.34-.58-4.89-4.86-4.9L80.92,71c-3.37,0-4.24.91-4.24,4.4v65.31c0,2.28,0,4.64,0,7,.06,3.14.84,3.94,4,4,1,0,1.9,0,2.86,0h5.26a17.19,17.19,0,0,1,1.9.17l.9.12,1.78.19s0,4.15,0,5.3c0,2.59,0,5,0,7.52s.84,3.15,3.27,3.23c.5,0,1,0,1.49,0H110v5.51c0,2.47,0,4.83,0,7.19,0,3.19.9,4,4.16,4h60.29c3.8,0,4.9-1.1,4.9-4.88v-38Q179.32,125.07,179.31,108.05ZM97.64,87.73c-3.77,0-4.29.54-4.29,4.4,0,0,0,39.44,0,48,0,.68,0,1.36-.08,2.1,0,.34-.05.7-.07,1.08l-.09,1.9h-10V77.4h56.09V87.73ZM109.9,109q0,17.09,0,34.17V162H99.72V94H156.3v9.86l-1.85.13-.92.08c-.72.07-1.47.13-2.25.14H114.55C110.64,104.27,109.9,105,109.9,109ZM173,178.61H116.42V110.85H173Z"/><path class="cls-2" d="M179.31,108.05c0-2.81-.73-3.57-3.54-3.73-.54,0-1.08,0-1.63,0l-2.33,0h-9.1v-2c0-1.23,0-2.42,0-3.59,0-2.61,0-5.07,0-7.54s-1-3.42-3.52-3.43H145.62V82.46c0-2.25,0-4.39,0-6.53,0-4.34-.58-4.89-4.86-4.9L80.92,71c-3.37,0-4.24.91-4.24,4.4v65.31c0,2.28,0,4.64,0,7,.06,3.14.84,3.94,4,4,1,0,1.9,0,2.86,0h5.26a17.19,17.19,0,0,1,1.9.17l.9.12,1.78.19s0,4.15,0,5.3c0,2.59,0,5,0,7.52s.84,3.15,3.27,3.23c.5,0,1,0,1.49,0H110v5.51c0,2.47,0,4.83,0,7.19,0,3.19.9,4,4.16,4h60.29c3.8,0,4.9-1.1,4.9-4.88v-38Q179.32,125.07,179.31,108.05ZM97.64,87.73c-3.77,0-4.29.54-4.29,4.4,0,0,0,39.44,0,48,0,.68,0,1.36-.08,2.1,0,.34-.05.7-.07,1.08l-.09,1.9h-10V77.4h56.09V87.73ZM109.9,109q0,17.09,0,34.17V162H99.72V94H156.3v9.86l-1.85.13-.92.08c-.72.07-1.47.13-2.25.14H114.55C110.64,104.27,109.9,105,109.9,109ZM173,178.61H116.42V110.85H173Z"/><path class="cls-2" d="M165.17,165.22c0,2.65-2.16,3.05-3.45,3.06H134.35c-2.41,0-4.81,0-7.22,0-2.85,0-3.28-1.58-3.36-2.75a3.27,3.27,0,0,1,.72-2.5,3,3,0,0,1,2.22-.83q9.56-.06,19.12-.05,8.08,0,16.16,0C164,162.17,165.17,163.26,165.17,165.22Z"/><path class="cls-2" d="M165.17,165.22c0,2.65-2.16,3.05-3.45,3.06H134.35c-2.41,0-4.81,0-7.22,0-2.85,0-3.28-1.58-3.36-2.75a3.27,3.27,0,0,1,.72-2.5,3,3,0,0,1,2.22-.83q9.56-.06,19.12-.05,8.08,0,16.16,0C164,162.17,165.17,163.26,165.17,165.22Z"/><path class="cls-2" d="M146.09,147.76c-7.28,0-12.84,0-18-.09a6.74,6.74,0,0,1-3.62-1c-1.07-.79-.83-2.25-.44-3.33a2.32,2.32,0,0,1,2.51-1.64c2.6,0,5.2,0,7.8,0h10.32l5.31,0,5.21,0c2.75,0,5,0,7.1.07a3,3,0,0,1,2.63,1.46,2.94,2.94,0,0,1-.14,3,4.08,4.08,0,0,1-2,1.38,8.22,8.22,0,0,1-2.34.24h-14.3Z"/><path class="cls-2" d="M155.37,123.67c0,1.92-1.15,2.9-3.33,2.92H131.91q-2.49,0-5,0c-2.07,0-3.14-1-3.18-2.8a2.9,2.9,0,0,1,3.2-3.29c3.93,0,7.87,0,11.8,0q6.78,0,13.54.06a3.08,3.08,0,0,1,2.28.85A3.15,3.15,0,0,1,155.37,123.67Z"/><path class="cls-2" d="M155.37,123.67c0,1.92-1.15,2.9-3.33,2.92H131.91q-2.49,0-5,0c-2.07,0-3.14-1-3.18-2.8a2.9,2.9,0,0,1,3.2-3.29c3.93,0,7.87,0,11.8,0q6.78,0,13.54.06a3.08,3.08,0,0,1,2.28.85A3.15,3.15,0,0,1,155.37,123.67Z"/></svg>