<svg id="Layer_1" data-name="Layer 1" xmlns="http://www.w3.org/2000/svg" viewBox="0 0 256 256"><defs><style>.cls-1{fill:#cef4fe;}.cls-2{fill:#2dc6fb;}</style></defs><circle class="cls-1" cx="128" cy="128" r="103.95"/><path class="cls-2" d="M178.25,154.45H167c-6,0-10.82,4.21-10.82,9.39v20.89c-2.41.23-4.83.42-7.26.6-11.2.84-22.41.64-33.6.4-9.58-.2-19.18-.78-28.56-3.08a31.44,31.44,0,0,1-10.29-4.2c-2.57-1.73-3.8-4.25-4.7-7-.16-.5-.07-1.07-.19-1.59-1.69-7.54,1.44-12.78,7.8-16.57a62.72,62.72,0,0,1,18.4-7.08c3.71-.85,7.48-1.44,11.14-2.13,6.62,6.15,12.79,11.87,19.15,17.79l19.16-17.78c3,.52,6.11,1,9.21,1.62a68.33,68.33,0,0,1,15.74,5.17A45.34,45.34,0,0,1,178.25,154.45Z"/><path class="cls-2" d="M160.12,102.07a32.12,32.12,0,0,1-64.23.18c.18-17.87,13.91-32.18,32.05-32.19A31.69,31.69,0,0,1,160.12,102.07Z"/><path class="cls-2" d="M187.76,158.45H167c-3.76,0-6.82,2.41-6.82,5.39v24.68c0,1,1.52,1.66,2.59,1l6.51-3.86h18.53c3.77,0,6.82-2.41,6.82-5.39V163.84C194.58,160.86,191.54,158.45,187.76,158.45Zm-12,20.38h-7.05a1.32,1.32,0,1,1,0-2.56h7.05a1.32,1.32,0,1,1,0,2.56ZM186,173.35H168.69a1.32,1.32,0,1,1,0-2.56H186a1.32,1.32,0,1,1,0,2.56Zm0-5.49H168.69a1.32,1.32,0,1,1,0-2.56H186a1.32,1.32,0,1,1,0,2.56Z"/></svg>