<svg id="Layer_1" data-name="Layer 1" xmlns="http://www.w3.org/2000/svg" viewBox="0 0 256 256"><defs><style>.cls-1{fill:#cef4fe;}.cls-2{fill:#2dc6fb;}</style></defs><circle class="cls-1" cx="128.84" cy="127.8" r="103.95"/><path class="cls-2" d="M178.45,170.67a35.54,35.54,0,0,1-.49,4.51,9.88,9.88,0,0,1-3.87,6.08c-3.46,2.53-7.47,3.6-11.55,4.43a130.29,130.29,0,0,1-16,1.89c-9.93.74-19.87.56-29.8.35-8.5-.17-17-.69-25.33-2.73a27.6,27.6,0,0,1-9.12-3.72,11.08,11.08,0,0,1-4.17-6.23c-.14-.44-.06-.95-.17-1.41-1.5-6.69,1.28-11.33,6.92-14.7a55.91,55.91,0,0,1,16.31-6.27c3.29-.75,6.64-1.28,9.88-1.89l17,15.77L145,151c2.63.45,5.42.86,8.17,1.43a60.6,60.6,0,0,1,14,4.59,42.74,42.74,0,0,1,7,4.29A10.27,10.27,0,0,1,178.45,170.67Z"/><path class="cls-2" d="M128.1,142.27a28.19,28.19,0,0,1-27.43-20.35c2.76,2.29,7.24,4.54,14.4,5.34a3.34,3.34,0,1,0,.24-3c-6.82-.78-10.73-3-12.87-4.77A11.19,11.19,0,0,1,99.59,116c-.06-.71-.08-1.42-.07-2.14.16-15.84,12.34-28.53,28.43-28.54a28.46,28.46,0,0,1,.15,56.92Z"/><path class="cls-2" d="M127.94,67.88a37.18,37.18,0,0,1,21.29,7A39.86,39.86,0,0,1,165.47,100a65,65,0,0,1,.84,7,1.8,1.8,0,0,0,1,1.68,8.18,8.18,0,0,1,3.65,4.83,17.34,17.34,0,0,1-.52,13.1,8.6,8.6,0,0,1-2.66,3.33,4.75,4.75,0,0,1-6.37-.55,10.41,10.41,0,0,1-2.77-4.78,17.09,17.09,0,0,1,1-12.75,8,8,0,0,1,3.07-3.35,1.06,1.06,0,0,0,.38-.8,36.84,36.84,0,0,0-1.88-11.11,37.45,37.45,0,0,0-8-13.8,34.34,34.34,0,0,0-6.59-5.62,33.53,33.53,0,0,0-34.69-1.43,34.73,34.73,0,0,0-8.79,6.87,37,37,0,0,0-9.66,20.11c-.26,1.66-.31,3.35-.5,5-.08.7.49.9.86,1.12a7.44,7.44,0,0,1,2.85,3.41,15.76,15.76,0,0,1,1.55,7.42,15,15,0,0,1-2.31,8.22,5.9,5.9,0,0,1-4.36,3,4.27,4.27,0,0,1-3.12-.89c-2.88-2.23-3.85-5.39-4.21-8.82a16.5,16.5,0,0,1,1.14-8.22,8.42,8.42,0,0,1,4-4.64.84.84,0,0,0,.33-.64,43.27,43.27,0,0,1,3.3-15.46,39.56,39.56,0,0,1,5.59-9.49,42,42,0,0,1,3.45-3.84,36.68,36.68,0,0,1,19.14-10.14C123.34,68.29,125.65,68.15,127.94,67.88Z"/></svg>