<svg id="Layer_1" data-name="Layer 1" xmlns="http://www.w3.org/2000/svg" viewBox="0 0 256 256"><defs><style>.cls-1{fill:#fff;stroke:#a3a3a3;stroke-miterlimit:10;stroke-width:5px;}.cls-2{fill:#555;}</style></defs><circle class="cls-1" cx="128" cy="128" r="102.4"/><path class="cls-2" d="M183.64,152.09l-18-76.27a4.42,4.42,0,0,0-5.32-3.29L49.84,98.59a4.42,4.42,0,0,0-3.28,5.32l18,76.27a4.41,4.41,0,0,0,5.32,3.29l110.48-26.06a4.39,4.39,0,0,0,2.74-2A4.45,4.45,0,0,0,183.64,152.09Zm-17.45-35.43-18.93-11,12.1-18Zm-101.87,24-6.83-29L76.34,122.4Zm7.82,33.16-5-21.31,16.93-25.78L116,144.84a4.41,4.41,0,0,0,5.85-1.38L142.32,113,169,128.51l5,21.31Z"/><path class="cls-2" d="M205.14,75.38H177.36a4.42,4.42,0,0,0,0,8.84h27.78a4.42,4.42,0,1,0,0-8.84Z"/><path class="cls-2" d="M200.47,97.9H182a4.42,4.42,0,1,0,0,8.84h18.44a4.42,4.42,0,1,0,0-8.84Z"/><path class="cls-2" d="M196.05,120.41h-9.59a4.43,4.43,0,0,0,0,8.85h9.59a4.43,4.43,0,0,0,0-8.85Z"/></svg>