<svg id="Layer_1" data-name="Layer 1" xmlns="http://www.w3.org/2000/svg" viewBox="0 0 256 256"><defs><style>.cls-1{fill:#cef4fe;}.cls-2{fill:#2dc6fb;}</style></defs><circle class="cls-1" cx="127.56" cy="128.12" r="103.95"/><path class="cls-2" d="M190.81,186.79c-2.27.57-123.43.58-125.58,0,0-3.4-.17-6.83,0-10.23a46.6,46.6,0,0,1,1.26-9,26.5,26.5,0,0,1,1.38-4A31.44,31.44,0,0,1,79,150,48.68,48.68,0,0,0,90.2,139.91c.09-.11.28-.15.43-.22.49,1.71.64,18.15.17,21.76-2.94,1-5.45,2.63-6.77,5.69a9.76,9.76,0,0,0-.84,3.67,9.29,9.29,0,0,0,.28,2.6,9.61,9.61,0,0,0,10.17,7.29,9.77,9.77,0,0,0,8.9-8.24,1.66,1.66,0,0,0,0-.22c.71-4.59-2-8.45-7.88-10.93,0-.72-.1-1.55-.09-2.39,0-5.65.12-11.31.11-17,0-2.48-.23-5-.25-7.44a5.56,5.56,0,0,1,.1-1.14c.25-1.25,1-1.92,2.55-2.42a5.25,5.25,0,0,1,5.13.6l2.27,1.72.08.06c.78.6,1.57,1.18,2.38,1.74.61.42,1.24.83,1.88,1.21,6.42,4.46,12.59,8.73,18.93,13.12l20.11-13.93c1.63-1,3.22-2.13,4.83-3.21l.42-.28a13.4,13.4,0,0,1,3.69-1.68,1.82,1.82,0,0,1,2.42,1.9v.88c0,2.7-.12,5.39-.21,8.09-.06,1.79-.17,3.57-.25,5.32-2.35,1.14-4.48,2-6.48,3.16a19.41,19.41,0,0,0-7.1,7.29,32.06,32.06,0,0,0-4.49,15.61,41.12,41.12,0,0,0,.09,4.14,4.9,4.9,0,0,0,3,4.43c2,.89,4.1,1.68,6.17,2.47a4.1,4.1,0,0,0,1.27.17c2.89.15,4.48-2.06,3.27-4.73a3.12,3.12,0,0,0-1.92-1.43,6.45,6.45,0,0,0-4.26.46c-2.12,1-3.89,0-4-2.21-.07-1.14-.08-2.26,0-3.37a26.31,26.31,0,0,1,5.14-15.32,19.44,19.44,0,0,1,4.21-4.09c5-3.54,10.4-3.22,15.14.68a20.9,20.9,0,0,1,6.23,8.67,33.61,33.61,0,0,1,2,7.73,30.61,30.61,0,0,1,.28,5.08c0,1.06-.14,2.09-1.2,2.67s-1.82.92-2.88.23a5.9,5.9,0,0,0-4.24-.58c-1.68.24-2.46,1.33-2.38,3.09.09,2,.93,3,2.67,3.11a7,7,0,0,0,2.54-.25c1.85-.62,3.66-1.37,5.45-2.14a5.31,5.31,0,0,0,3.38-4.21,24.07,24.07,0,0,0-.09-7.53c-.05-.39-.11-.77-.18-1.16-1-5.95-3.13-11.37-7.43-15.78a21,21,0,0,0-8.42-5.27l-1.91-.65a58.08,58.08,0,0,1,0-11,16.76,16.76,0,0,1,1.17,1.35,44.18,44.18,0,0,0,12.29,12.27c6.7,4.52,11.28,10.52,13.27,18.16.25.93.46,1.9.63,2.88A91.14,91.14,0,0,1,190.81,186.79Z"/><path class="cls-2" d="M158.88,100c-.37,18-13.5,29.55-28.28,30.82-20.1,1.72-33.72-14.7-33.63-31.12a31,31,0,1,1,61.91.3Z"/><path class="cls-2" d="M158.14,96.72a29.8,29.8,0,0,1-5,17.21,30.26,30.26,0,0,1-10.24,9.7,31.06,31.06,0,0,1-15.64,4.13,33.65,33.65,0,0,1-3.65-.19h0A30.79,30.79,0,0,1,96.17,96.89c.18-17.24,13.42-31,30.93-31a31.76,31.76,0,0,1,11.18,2A30.5,30.5,0,0,1,158.14,96.72Z"/></svg>