<svg id="Layer_1" data-name="Layer 1" xmlns="http://www.w3.org/2000/svg" viewBox="0 0 256 256"><defs><style>.cls-1{fill:#cef4fe;}.cls-2{fill:#2dc6fb;}</style></defs><circle class="cls-1" cx="128" cy="128" r="103.95"/><path class="cls-2" d="M83.87,182.75a3.81,3.81,0,0,1-3.79-3.83,3.69,3.69,0,0,1,1.14-2.68l83.69-83-48.4,1.41A3.89,3.89,0,0,1,112.62,91a3.81,3.81,0,0,1,1.13-2.78,3.75,3.75,0,0,1,2.59-1.09l52-1.37a9.49,9.49,0,0,1,9.52,9.53l-2,52.05A3.78,3.78,0,0,1,172.1,151a4,4,0,0,1-2.79-1.22,3.86,3.86,0,0,1-1-2.7l1.84-48.26L86.56,181.65A3.81,3.81,0,0,1,83.87,182.75Z"/><path class="cls-2" d="M175.81,87.8a10.43,10.43,0,0,0-7.5-3.09l-52,1.37a4.8,4.8,0,0,0-4.7,4.9,4.91,4.91,0,0,0,4.92,4.7l45.86-1.34L80.52,175.52a4.71,4.71,0,0,0-1.44,3.4,4.81,4.81,0,0,0,8.19,3.44L169,101.3,167.29,147a4.86,4.86,0,0,0,1.3,3.41A5,5,0,0,0,172.1,152a4.77,4.77,0,0,0,4.79-4.66l2-52.08A10.38,10.38,0,0,0,175.81,87.8Z"/></svg>