<svg id="Layer_1" data-name="Layer 1" xmlns="http://www.w3.org/2000/svg" viewBox="0 0 256 256"><defs><style>.cls-1{fill:#cef4fe;}.cls-2{fill:#2dc6fb;}</style></defs><circle class="cls-1" cx="128" cy="128" r="103.95"/><path class="cls-2" d="M198.89,172.83a7.41,7.41,0,0,1-4.61,5.14c-7.95,3.07-16,6.48-24.34,7.83a109.06,109.06,0,0,1-48.83-2.74c-7.61-2.24-12.43-5.25-14.58-9.36-2.46-4.67-1.48-10.76,2.75-18.78a32,32,0,0,1,20.27-16.36l3.55-.65,1.33,1.23,17.22,16c5.64-5.24,11.15-10.37,16.85-15.65.85-.43,1.71-.91,2.56-1.42l.09-.06a31.69,31.69,0,0,1,3.67.69,32.48,32.48,0,0,1,24.52,29.61A13.71,13.71,0,0,1,198.89,172.83Z"/><path class="cls-2" d="M128.86,90.51l-11.69-5.36c.11-.92,0-1.58.22-1.66,11-4.9,22-9.79,33.13-14.52a6.05,6.05,0,0,1,4.19.11C165.84,73.64,176.92,78.35,188,83l.07,1.6-12.09,6c.32,4,.41,8.48,1.07,12.83,1.72,11.34-1.91,20.72-10.34,28.15-9.62,8.47-22.38,7.45-31.27-2.47-6.81-7.6-9.69-16.43-7.44-26.76C128.83,98.62,128.59,94.65,128.86,90.51Z"/><path class="cls-2" d="M75.38,99.49l-8.89-4.07c.09-.71,0-1.21.17-1.27,8.38-3.72,16.76-7.44,25.2-11A4.53,4.53,0,0,1,95,83.2c8.47,3.46,16.89,7,25.33,10.6l0,1.21-9.2,4.56c.25,3.07.31,6.45.82,9.76,1.3,8.63-1.45,15.76-7.87,21.41-7.31,6.44-17,5.67-23.77-1.88-5.18-5.78-7.37-12.49-5.66-20.35C75.36,105.66,75.18,102.64,75.38,99.49Z"/><path class="cls-2" d="M100.13,172.78a81.46,81.46,0,0,1-30.64-2.91c-5.79-1.7-9.45-4-11.09-7.12-1.87-3.55-1.12-8.18,2.1-14.28a24.06,24.06,0,0,1,13.44-11.79c.64-.24,1.3-.45,2-.65l2.7-.49,1,.93.12.11c4.46,4.14,8.65,8,13,12.06,4.17-3.88,8.25-7.68,12.46-11.58l.35-.32q1-.5,2-1.08l.07,0a23.67,23.67,0,0,1,2.79.53l.57.16.1,0a21.24,21.24,0,0,1,2.09.68,18.47,18.47,0,0,1,3.11,1.82C105.14,147.7,99.71,158.73,100.13,172.78Z"/><path class="cls-2" d="M113.1,137a21.24,21.24,0,0,0-2.09-.68A10.59,10.59,0,0,1,113.1,137Z"/><polygon class="cls-2" points="121.56 109.15 119.32 115.61 117.34 109.07 119.13 90 117.44 88.3 119.32 86.42 121.19 88.3 119.53 89.98 121.56 109.15"/><polygon class="cls-2" points="69.75 113.41 67.99 118.47 66.44 113.34 67.84 98.37 66.52 97.04 67.99 95.57 69.46 97.04 68.16 98.36 69.75 113.41"/></svg>